<svg xmlns="http://www.w3.org/2000/svg" viewBox="0 0 777.93 243"><defs><style>.cls-1{fill:#8bdfff;}.cls-2,.cls-8{font-size:12px;}.cls-2,.cls-4,.cls-8{font-family:Consolas;}.cls-3{fill:#ffeea2;}.cls-4{font-size:20px;}.cls-4,.cls-6,.cls-8{fill:#fff;}.cls-5{fill:#282c34;}.cls-7{fill:#3d3d3d;}.cls-9{fill:none;stroke:#fff;stroke-miterlimit:10;}</style></defs><g id="Layer_2" data-name="Layer 2"><g id="Layer_1-2" data-name="Layer 1"><rect class="cls-1" x="179.93" y="68" width="126" height="46"/><rect class="cls-1" x="179.93" y="132" width="126" height="46"/><rect class="cls-1" x="179.93" width="126" height="46"/><text class="cls-2" transform="translate(185 27.11)">Extract text from <tspan x="0" y="14.4">Drive</tspan></text><text class="cls-2" transform="translate(185 95.11)">Extract text from <tspan x="0" y="14.4">Email</tspan></text><rect class="cls-1" x="503.93" y="68" width="126" height="46"/><text class="cls-2" transform="translate(508.5 91.61)"><tspan xml:space="preserve">Send Invoice for  </tspan><tspan x="0" y="14.4">Approval</tspan></text><rect class="cls-1" x="651.93" y="68" width="126" height="46"/><text class="cls-2" transform="translate(657.89 107.61)">Send Invoice Data</text><text class="cls-2" transform="translate(185 156.11)">Extract text from <tspan x="0" y="14.4">PDF (Uploaded </tspan></text><rect class="cls-3" x="348.52" y="50.59" width="101.82" height="101.82" transform="translate(45.22 312.17) rotate(-45)"/><text class="cls-2" transform="translate(342.38 110.11)">Invoice Parcer AI <tspan x="39.59" y="14.4">Agent</tspan></text><text class="cls-4" transform="translate(0 24.63)">Invoice <tspan x="0" y="24">Processing</tspan></text><rect class="cls-5" x="385.98" y="58.98" width="26" height="26" rx="13"/><rect class="cls-5" x="408.98" y="65" width="7.95" height="14.31" rx="3.98"/><rect class="cls-5" x="396.31" y="48.17" width="4.42" height="14.31" rx="2.21" transform="translate(343.2 453.84) rotate(-90)"/><rect class="cls-1" x="390.5" y="66.62" width="17.43" height="6.34" rx="2.86"/><rect class="cls-5" x="381.06" y="65" width="7.95" height="14.31" rx="3.98"/><rect class="cls-5" x="397.32" y="53.8" width="2.84" height="10.13"/><path class="cls-6" d="M403.94,79.24h0c0,.9-.41,1.64-.92,1.64h-9c-.51,0-.92-.74-.92-1.64h0c0-.9.41-1.63.92-1.63h9C403.53,77.61,403.94,78.34,403.94,79.24Z"/><circle class="cls-7" cx="465.43" cy="215.5" r="27.5"/><circle class="cls-7" cx="339.43" cy="215.5" r="27.5"/><text class="cls-8" transform="translate(329 218.11)">LLM</text><text class="cls-8" transform="translate(446 218.11)">Parser</text><line class="cls-9" x1="305.93" y1="89" x2="327.43" y2="101.5"/><line class="cls-9" x1="305.93" y1="28" x2="327.43" y2="101.5"/><line class="cls-9" x1="305.93" y1="155" x2="327.43" y2="101.5"/><line class="cls-9" x1="471.43" y1="101.5" x2="504.93" y2="92"/><line class="cls-9" x1="629.93" y1="91" x2="652.93" y2="91"/><line class="cls-9" x1="399.43" y1="173.5" x2="459.93" y2="185"/><line class="cls-9" x1="399.43" y1="173.5" x2="338.93" y2="185"/></g></g></svg>