<svg xmlns="http://www.w3.org/2000/svg" viewBox="0 0 921.45 411.98"><defs><style>.cls-1{fill:#8bdfff;}.cls-2{font-size:12px;}.cls-2,.cls-3{font-family:Consolas;}.cls-3{font-size:20px;}.cls-3,.cls-6{fill:#fff;}.cls-4{fill:#ffeea2;}.cls-5{fill:#282c34;}.cls-7,.cls-8{fill:none;}.cls-7{stroke:#fff;stroke-miterlimit:10;}</style></defs><g id="Layer_2" data-name="Layer 2"><g id="Layer_1-2" data-name="Layer 1"><rect class="cls-1" x="173.93" y="25" width="126" height="46"/><text class="cls-2" transform="translate(179 65.11)">DataLake</text><text class="cls-3" transform="translate(0 89.63)">Smart <tspan x="0" y="24">Agricultural </tspan><tspan x="0" y="48">Supply Chain</tspan></text><rect class="cls-1" x="493.93" width="126" height="46"/><text class="cls-2" transform="translate(499 40.11)">Farm Sensor</text><rect class="cls-1" x="703.93" y="191" width="126" height="46"/><text class="cls-2" transform="translate(709 231.11)">Farm Operations</text><rect class="cls-1" x="576.93" y="291" width="126" height="46"/><path d="M587.77,315.11h-4.4v-7.66h1.06v6.77h3.34Z"/><path d="M594.66,312.12a3.87,3.87,0,0,1-.2,1.26,2.79,2.79,0,0,1-.55,1,2.47,2.47,0,0,1-.89.64,3,3,0,0,1-1.18.22,3.17,3.17,0,0,1-1.14-.19,2.38,2.38,0,0,1-.85-.58,2.53,2.53,0,0,1-.53-.94,4.3,4.3,0,0,1-.18-1.3,3.81,3.81,0,0,1,.19-1.25,2.66,2.66,0,0,1,.56-1,2.45,2.45,0,0,1,.88-.63,2.81,2.81,0,0,1,1.19-.23,3.08,3.08,0,0,1,1.13.2,2.28,2.28,0,0,1,.85.57,2.53,2.53,0,0,1,.53.94A4.27,4.27,0,0,1,594.66,312.12Zm-1,.05a3.45,3.45,0,0,0-.12-1,2,2,0,0,0-.34-.68,1.55,1.55,0,0,0-.54-.41,1.8,1.8,0,0,0-.71-.13,1.62,1.62,0,0,0-.79.18,1.49,1.49,0,0,0-.53.47,1.93,1.93,0,0,0-.3.7,3.2,3.2,0,0,0-.1.83,3.38,3.38,0,0,0,.12.95,1.81,1.81,0,0,0,.34.68,1.34,1.34,0,0,0,.54.41,1.65,1.65,0,0,0,.72.14,1.61,1.61,0,0,0,.78-.18,1.5,1.5,0,0,0,.53-.47,2.13,2.13,0,0,0,.31-.7A3.7,3.7,0,0,0,593.61,312.17Z"/><path d="M600.37,310.06a1.41,1.41,0,0,1,.25.47,1.92,1.92,0,0,1,.1.59,2.07,2.07,0,0,1-.17.84,1.9,1.9,0,0,1-.47.65,2.09,2.09,0,0,1-.73.41,2.85,2.85,0,0,1-.94.15,3.11,3.11,0,0,1-.69-.07,2.08,2.08,0,0,1-.51-.2c-.07.11-.14.21-.19.31a.72.72,0,0,0-.07.33.44.44,0,0,0,.21.37,1,1,0,0,0,.57.15l1.54.06a4.06,4.06,0,0,1,.82.11,2.16,2.16,0,0,1,.63.29,1.41,1.41,0,0,1,.42.46,1.34,1.34,0,0,1,.15.64,1.75,1.75,0,0,1-.17.75,1.71,1.71,0,0,1-.53.62,2.73,2.73,0,0,1-.89.42,4.58,4.58,0,0,1-1.3.16,5.35,5.35,0,0,1-1.22-.12,2.7,2.7,0,0,1-.82-.31,1.43,1.43,0,0,1-.47-.48,1.4,1.4,0,0,1-.14-.61,1.32,1.32,0,0,1,.2-.75,2.12,2.12,0,0,1,.61-.63.78.78,0,0,1-.26-.17.76.76,0,0,1-.18-.23A1,1,0,0,1,596,314a1.36,1.36,0,0,1,0-.27,1.38,1.38,0,0,1,.18-.7,3.48,3.48,0,0,1,.43-.6c-.08-.09-.14-.18-.2-.26a2.44,2.44,0,0,1-.14-.28,1.19,1.19,0,0,1-.1-.32,2.41,2.41,0,0,1,0-.4,2.05,2.05,0,0,1,.17-.83,1.7,1.7,0,0,1,.47-.65,2.14,2.14,0,0,1,.72-.42,2.85,2.85,0,0,1,.94-.15,2.77,2.77,0,0,1,.42,0,1.64,1.64,0,0,1,.35.08h2.13v.83Zm-3.54,5.9a.62.62,0,0,0,.43.6,3.06,3.06,0,0,0,1.21.19,3.2,3.2,0,0,0,.82-.08,1.75,1.75,0,0,0,.53-.23.86.86,0,0,0,.38-.71.57.57,0,0,0-.29-.53,2.14,2.14,0,0,0-.9-.2l-1.54-.05a3,3,0,0,0-.31.25,1.1,1.1,0,0,0-.2.25.87.87,0,0,0-.1.25A1.15,1.15,0,0,0,596.83,316Zm.31-4.81a1.4,1.4,0,0,0,.09.51,1.28,1.28,0,0,0,.27.4,1.2,1.2,0,0,0,.4.26,1.36,1.36,0,0,0,.51.09,1.27,1.27,0,0,0,.54-.11,1,1,0,0,0,.4-.27,1.33,1.33,0,0,0,.25-.41,1.26,1.26,0,0,0,.08-.47,1.46,1.46,0,0,0-.09-.52,1.2,1.2,0,0,0-.26-.4,1.28,1.28,0,0,0-.4-.25,1.46,1.46,0,0,0-.52-.09,1.33,1.33,0,0,0-.54.1,1.3,1.3,0,0,0-.4.28,1.1,1.1,0,0,0-.24.4A1.28,1.28,0,0,0,597.14,311.15Z"/><path d="M604.73,310.07H603v-.84h2.78v5h1.75v.85H602.8v-.85h1.93Zm.36-3.31a.83.83,0,0,1,.32.06.78.78,0,0,1,.42.43.78.78,0,0,1,.06.31.81.81,0,0,1-.06.31.65.65,0,0,1-.17.26.74.74,0,0,1-.25.17.83.83,0,0,1-.32.06.78.78,0,0,1-.74-.49.81.81,0,0,1-.06-.31.78.78,0,0,1,.06-.31.9.9,0,0,1,.17-.26.81.81,0,0,1,.57-.23Z"/><path d="M614,313.5a1.42,1.42,0,0,1-.4,1,1.94,1.94,0,0,1-.42.32,2.91,2.91,0,0,1-.51.22,2.68,2.68,0,0,1-.56.13,3.6,3.6,0,0,1-.56,0,9.36,9.36,0,0,1-1.1,0,6.27,6.27,0,0,1-1-.17v-.94a7.48,7.48,0,0,0,1,.23,7,7,0,0,0,1,.07,2.18,2.18,0,0,0,1.08-.2.62.62,0,0,0,.35-.57.82.82,0,0,0,0-.28.75.75,0,0,0-.21-.24,1.51,1.51,0,0,0-.45-.24l-.84-.28a6.36,6.36,0,0,1-.74-.27,2.08,2.08,0,0,1-.58-.35,1.79,1.79,0,0,1-.39-.48,1.45,1.45,0,0,1-.14-.65,1.47,1.47,0,0,1,.12-.54,1.31,1.31,0,0,1,.39-.54,2.09,2.09,0,0,1,.74-.42,3.53,3.53,0,0,1,1.17-.17,8.76,8.76,0,0,1,1.65.17v.91a8.58,8.58,0,0,0-.91-.18c-.29,0-.54,0-.75,0a2.9,2.9,0,0,0-.64.06,1.36,1.36,0,0,0-.42.16.58.58,0,0,0-.23.24.6.6,0,0,0-.07.3.64.64,0,0,0,.06.28.67.67,0,0,0,.23.25,2.13,2.13,0,0,0,.46.24,7.83,7.83,0,0,0,.78.26,6.19,6.19,0,0,1,.88.32,2.42,2.42,0,0,1,.58.37,1.13,1.13,0,0,1,.32.47A1.72,1.72,0,0,1,614,313.5Z"/><path d="M620.67,315a5.41,5.41,0,0,1-.72.12,6.06,6.06,0,0,1-.75,0,2.38,2.38,0,0,1-1.65-.5,2,2,0,0,1-.55-1.54v-3.07h-1.64v-.85H617v-1.62l1-.27v1.89h2.65v.85H618v3a1.26,1.26,0,0,0,.34.95,1.47,1.47,0,0,0,1,.31,4.69,4.69,0,0,0,.62-.05,5,5,0,0,0,.7-.13Z"/><path d="M624.53,310.07h-1.74v-.84h2.77v5h1.75v.85h-4.72v-.85h1.94Zm.36-3.31a.81.81,0,0,1,.31.06.76.76,0,0,1,.43.43.78.78,0,0,1,.06.31.81.81,0,0,1-.06.31.78.78,0,0,1-.17.26.9.9,0,0,1-.26.17.81.81,0,0,1-.31.06.83.83,0,0,1-.32-.06.9.9,0,0,1-.26-.17.78.78,0,0,1-.17-.26.81.81,0,0,1-.06-.31.78.78,0,0,1,.06-.31.76.76,0,0,1,.43-.43A.83.83,0,0,1,624.89,306.76Z"/><path d="M633.69,314.89a4.53,4.53,0,0,1-.82.23,4.83,4.83,0,0,1-.86.07,2.88,2.88,0,0,1-2.15-.76,3,3,0,0,1-.75-2.2,3.42,3.42,0,0,1,.22-1.27,2.63,2.63,0,0,1,.61-1,2.73,2.73,0,0,1,.93-.63,3.37,3.37,0,0,1,1.2-.22,4.68,4.68,0,0,1,.86.07,3.16,3.16,0,0,1,.76.21v1a3.28,3.28,0,0,0-.77-.29,3.75,3.75,0,0,0-.82-.09,1.85,1.85,0,0,0-.74.15,1.77,1.77,0,0,0-.62.43,2.14,2.14,0,0,0-.41.69,2.59,2.59,0,0,0-.15.91,2.24,2.24,0,0,0,.51,1.6,2,2,0,0,0,1.44.53,3.1,3.1,0,0,0,.81-.1,3,3,0,0,0,.75-.28Z"/><path d="M647.65,311.23a5.85,5.85,0,0,1-.24,1.78,3.73,3.73,0,0,1-.65,1.24,2.62,2.62,0,0,1-1,.73,3.21,3.21,0,0,1-2.46,0,2.47,2.47,0,0,1-.9-.77,3.46,3.46,0,0,1-.54-1.23,6.78,6.78,0,0,1-.18-1.63,5.83,5.83,0,0,1,.24-1.77,3.48,3.48,0,0,1,.66-1.24,2.51,2.51,0,0,1,1-.73,2.92,2.92,0,0,1,1.17-.24,2.84,2.84,0,0,1,1.28.27,2.42,2.42,0,0,1,.91.77,3.47,3.47,0,0,1,.55,1.23A7.26,7.26,0,0,1,647.65,311.23Zm-1.08.08a6.77,6.77,0,0,0-.1-1.24,3.19,3.19,0,0,0-.33-1,1.79,1.79,0,0,0-.59-.63,1.61,1.61,0,0,0-.87-.22,1.49,1.49,0,0,0-.85.24,1.72,1.72,0,0,0-.58.64,3.19,3.19,0,0,0-.34,1,5.38,5.38,0,0,0-.11,1.16,6.85,6.85,0,0,0,.1,1.24,3.19,3.19,0,0,0,.33,1,1.68,1.68,0,0,0,.59.62,1.55,1.55,0,0,0,.86.23,1.49,1.49,0,0,0,.85-.24,2,2,0,0,0,.59-.65,3.23,3.23,0,0,0,.34-.95A6.09,6.09,0,0,0,646.57,311.31Z"/><path d="M653.94,312.06a3.82,3.82,0,0,1-.22,1.37,2.62,2.62,0,0,1-.6,1,2.4,2.4,0,0,1-.92.58,3.25,3.25,0,0,1-1.14.2,5.12,5.12,0,0,1-.56,0,4,4,0,0,1-.57-.1v2.46h-1v-8.28h.91l.07,1a2.61,2.61,0,0,1,.93-.85,2.51,2.51,0,0,1,1.08-.24,1.83,1.83,0,0,1,.89.21,1.92,1.92,0,0,1,.64.6,2.66,2.66,0,0,1,.38.92A5,5,0,0,1,653.94,312.06Zm-1,.05a4.5,4.5,0,0,0-.07-.85,2,2,0,0,0-.21-.66,1.15,1.15,0,0,0-.38-.43.89.89,0,0,0-.54-.16,1.34,1.34,0,0,0-.81.27,2.84,2.84,0,0,0-.45.38,5.43,5.43,0,0,0-.51.59v2.85a3,3,0,0,0,.6.18,2.54,2.54,0,0,0,.61.07,1.57,1.57,0,0,0,1.29-.56A2.57,2.57,0,0,0,652.9,312.11Z"/><path d="M660.25,315a5.54,5.54,0,0,1-.71.12,6.28,6.28,0,0,1-.75,0,2.38,2.38,0,0,1-1.65-.5,2,2,0,0,1-.55-1.54v-3.07h-1.65v-.85h1.65v-1.62l1-.27v1.89h2.64v.85h-2.64v3a1.23,1.23,0,0,0,.34.95,1.43,1.43,0,0,0,1,.31,6.5,6.5,0,0,0,1.31-.18Z"/><path d="M664.11,310.07h-1.74v-.84h2.77v5h1.76v.85h-4.72v-.85h1.93Zm.36-3.31a.87.87,0,0,1,.32.06.74.74,0,0,1,.25.17.9.9,0,0,1,.17.26.78.78,0,0,1,.06.31.81.81,0,0,1-.06.31.78.78,0,0,1-.17.26.74.74,0,0,1-.25.17.88.88,0,0,1-.64,0,.85.85,0,0,1-.25-.17.78.78,0,0,1-.17-.26.81.81,0,0,1-.06-.31.78.78,0,0,1,.06-.31.9.9,0,0,1,.17-.26.85.85,0,0,1,.25-.17A.87.87,0,0,1,664.47,306.76Z"/><path d="M672.9,315.11v-4.23a3,3,0,0,0,0-.45.9.9,0,0,0-.06-.28.4.4,0,0,0-.11-.14.31.31,0,0,0-.17,0,.36.36,0,0,0-.22.07,1,1,0,0,0-.21.23,2.44,2.44,0,0,0-.25.42c-.1.17-.2.38-.33.64v3.78h-.93V311c0-.21,0-.38,0-.52a1.1,1.1,0,0,0-.07-.31.25.25,0,0,0-.11-.15.31.31,0,0,0-.17,0,.36.36,0,0,0-.2.06,1,1,0,0,0-.21.21,3.93,3.93,0,0,0-.25.41c-.1.18-.21.41-.34.68v3.78h-.93v-5.88h.78l0,1.11a4.05,4.05,0,0,1,.3-.56,1.33,1.33,0,0,1,.3-.38.89.89,0,0,1,.32-.21,1,1,0,0,1,.38-.07.85.85,0,0,1,.72.31,1.51,1.51,0,0,1,.25,1c.09-.2.19-.38.28-.54a1.79,1.79,0,0,1,.29-.4,1,1,0,0,1,.34-.25,1.14,1.14,0,0,1,.43-.08c.74,0,1.11.57,1.11,1.7v4.29Z"/><path d="M677.31,310.07h-1.74v-.84h2.77v5h1.75v.85h-4.71v-.85h1.93Zm.36-3.31a.81.81,0,0,1,.57.23.9.9,0,0,1,.17.26.78.78,0,0,1,.06.31.81.81,0,0,1-.06.31.79.79,0,0,1-.74.49.83.83,0,0,1-.32-.06.9.9,0,0,1-.26-.17.76.76,0,0,1-.16-.26.67.67,0,0,1-.07-.31.64.64,0,0,1,.07-.31.87.87,0,0,1,.16-.26.9.9,0,0,1,.26-.17A.83.83,0,0,1,677.67,306.76Z"/><path d="M686,312.4h-3.51v-1H686Z"/><path d="M587.7,329.51H583v-.73l3.32-4.3H583v-.86h4.47v.8l-3.27,4.23h3.46Z"/><path d="M593.31,329.51l0-.79a3.24,3.24,0,0,1-1,.68,2.65,2.65,0,0,1-1,.21,2.49,2.49,0,0,1-.87-.13,1.53,1.53,0,0,1-.58-.35,1.31,1.31,0,0,1-.34-.53,1.76,1.76,0,0,1-.11-.66,1.66,1.66,0,0,1,.66-1.39,3.21,3.21,0,0,1,1.94-.5h1.22v-.51a1.11,1.11,0,0,0-.33-.84,1.43,1.43,0,0,0-1-.31,4,4,0,0,0-1,.11,7.11,7.11,0,0,0-1,.31v-.92l.43-.13a4.05,4.05,0,0,1,.5-.12,4.85,4.85,0,0,1,.55-.09,5.63,5.63,0,0,1,.58,0,3.5,3.5,0,0,1,1,.12,1.84,1.84,0,0,1,.73.35,1.62,1.62,0,0,1,.45.61,2,2,0,0,1,.16.85v4.06Zm-.11-2.68h-1.29a2.54,2.54,0,0,0-.66.08,1.34,1.34,0,0,0-.45.21.94.94,0,0,0-.26.34,1,1,0,0,0-.08.44.91.91,0,0,0,0,.33.65.65,0,0,0,.17.27.77.77,0,0,0,.3.19,1.27,1.27,0,0,0,.46.07,2,2,0,0,0,.81-.21,3.77,3.77,0,0,0,1-.68Z"/><path d="M600.87,329.43a5.54,5.54,0,0,1-.71.12,6.28,6.28,0,0,1-.75,0,2.38,2.38,0,0,1-1.65-.5,2,2,0,0,1-.55-1.54v-3.07h-1.65v-.86h1.65V322l1-.27v1.88h2.64v.86h-2.64v3a1.23,1.23,0,0,0,.34.95,1.43,1.43,0,0,0,1,.31,4.82,4.82,0,0,0,.62-.05,4.62,4.62,0,0,0,.69-.13Z"/><path d="M604.73,324.47H603v-.85h2.78v5h1.75v.85H602.8v-.85h1.93Zm.36-3.31a.83.83,0,0,1,.32.06.78.78,0,0,1,.42.43.78.78,0,0,1,.06.31.81.81,0,0,1-.06.31.65.65,0,0,1-.17.26.74.74,0,0,1-.25.17.83.83,0,0,1-.32.06.78.78,0,0,1-.74-.49.81.81,0,0,1-.06-.31.78.78,0,0,1,.06-.31.9.9,0,0,1,.17-.26.81.81,0,0,1,.57-.23Z"/><path d="M614.45,326.52a3.87,3.87,0,0,1-.19,1.26,2.81,2.81,0,0,1-.56,1,2.39,2.39,0,0,1-.89.64,2.92,2.92,0,0,1-1.18.22,3.08,3.08,0,0,1-1.13-.19,2.22,2.22,0,0,1-.85-.58,2.7,2.7,0,0,1-.54-.94,4.3,4.3,0,0,1-.18-1.3,3.81,3.81,0,0,1,.19-1.25,2.81,2.81,0,0,1,.56-1,2.54,2.54,0,0,1,.88-.63,2.84,2.84,0,0,1,1.19-.23,2.88,2.88,0,0,1,1.13.2,2.2,2.2,0,0,1,.85.57,2.53,2.53,0,0,1,.53.94A4,4,0,0,1,614.45,326.52Zm-1,.05a3.45,3.45,0,0,0-.12-1,2,2,0,0,0-.35-.68,1.46,1.46,0,0,0-.54-.41,1.8,1.8,0,0,0-.71-.13,1.58,1.58,0,0,0-.78.18,1.44,1.44,0,0,0-.54.47,2.12,2.12,0,0,0-.3.7,3.7,3.7,0,0,0-.1.83,3.38,3.38,0,0,0,.12.95,1.9,1.9,0,0,0,.35.68,1.25,1.25,0,0,0,.53.41,1.68,1.68,0,0,0,.72.14,1.58,1.58,0,0,0,.78-.18,1.64,1.64,0,0,0,.54-.47,2.12,2.12,0,0,0,.3-.7A3.7,3.7,0,0,0,613.41,326.57Z"/><path d="M615.93,323.62h.9l0,.95a3.9,3.9,0,0,1,.49-.5,2.54,2.54,0,0,1,.47-.33,1.84,1.84,0,0,1,.48-.17,2.63,2.63,0,0,1,.49-.05,1.72,1.72,0,0,1,1.38.54,2.38,2.38,0,0,1,.46,1.61v3.84h-1v-3.76a1.66,1.66,0,0,0-.26-1,.92.92,0,0,0-.77-.33,1.11,1.11,0,0,0-.74.25,2.65,2.65,0,0,0-.42.37,6.88,6.88,0,0,0-.5.59v3.9h-1Z"/><path d="M634.72,329.51h-1.13l-.54-1.67h-3.18l-.54,1.67h-1.09l2.55-7.66h1.43Zm-2-2.6-1.29-4.1-1.3,4.1Z"/><path d="M640,324.46a1.62,1.62,0,0,1,.25.47,2.08,2.08,0,0,1-.08,1.43,1.78,1.78,0,0,1-.47.65,1.93,1.93,0,0,1-.73.41,2.75,2.75,0,0,1-.93.15,3,3,0,0,1-.69-.07,1.8,1.8,0,0,1-.51-.2,2.16,2.16,0,0,0-.19.31.73.73,0,0,0-.08.33.43.43,0,0,0,.22.37,1,1,0,0,0,.56.15l1.55.06a4.06,4.06,0,0,1,.81.11,2.22,2.22,0,0,1,.64.29,1.41,1.41,0,0,1,.42.46,1.34,1.34,0,0,1,.15.64,1.75,1.75,0,0,1-.17.75,1.81,1.81,0,0,1-.53.62,2.89,2.89,0,0,1-.9.42A4.46,4.46,0,0,1,638,332a5.29,5.29,0,0,1-1.22-.12,2.6,2.6,0,0,1-.82-.31,1.34,1.34,0,0,1-.47-.48,1.28,1.28,0,0,1-.15-.61,1.4,1.4,0,0,1,.2-.75,2.16,2.16,0,0,1,.62-.63,1,1,0,0,1-.27-.17,1.3,1.3,0,0,1-.18-.23,1,1,0,0,1-.1-.27.9.9,0,0,1,0-.28,1.37,1.37,0,0,1,.18-.69,4,4,0,0,1,.42-.6c-.07-.09-.14-.18-.19-.26a1.51,1.51,0,0,1-.15-.28,1.68,1.68,0,0,1-.09-.32,2.41,2.41,0,0,1,0-.4,2,2,0,0,1,.16-.83,1.81,1.81,0,0,1,.47-.65,2.09,2.09,0,0,1,.73-.42,2.77,2.77,0,0,1,.94-.15,2.73,2.73,0,0,1,.41,0l.36.07h2.13v.84Zm-3.54,5.9a.62.62,0,0,0,.43.6,3,3,0,0,0,1.21.19,3.69,3.69,0,0,0,.81-.08,1.69,1.69,0,0,0,.54-.24.83.83,0,0,0,.38-.7.56.56,0,0,0-.3-.53,2.05,2.05,0,0,0-.89-.2l-1.54,0a3.27,3.27,0,0,0-.32.25,1,1,0,0,0-.19.25.87.87,0,0,0-.1.25A1.15,1.15,0,0,0,636.42,330.36Zm.31-4.81a1.4,1.4,0,0,0,.09.51,1.11,1.11,0,0,0,.26.4,1.25,1.25,0,0,0,.41.26,1.36,1.36,0,0,0,.51.09,1.33,1.33,0,0,0,.54-.11,1.08,1.08,0,0,0,.64-.68,1.27,1.27,0,0,0,.09-.47,1.46,1.46,0,0,0-.09-.52,1.23,1.23,0,0,0-.27-.4,1.09,1.09,0,0,0-.4-.25,1.36,1.36,0,0,0-.51-.09,1.22,1.22,0,0,0-.94.38,1.28,1.28,0,0,0-.25.4A1.51,1.51,0,0,0,636.73,325.55Z"/><path d="M647.29,326.26c0,.14,0,.26,0,.36a2.13,2.13,0,0,1,0,.27h-4.13a1.81,1.81,0,0,0,.51,1.39,2,2,0,0,0,1.45.48,4.35,4.35,0,0,0,.51,0l.5-.05.46-.08.41-.1v.84a7.08,7.08,0,0,1-.94.19,7.68,7.68,0,0,1-1.09.07,3.86,3.86,0,0,1-1.3-.2,2.26,2.26,0,0,1-.89-.6,2.31,2.31,0,0,1-.52-.95,4.61,4.61,0,0,1-.17-1.28,3.79,3.79,0,0,1,.18-1.18,3.11,3.11,0,0,1,.52-1,2.54,2.54,0,0,1,2-.91,2.86,2.86,0,0,1,1.09.19,2.24,2.24,0,0,1,.8.55,2.42,2.42,0,0,1,.49.86A3.69,3.69,0,0,1,647.29,326.26Zm-1.07-.15a2.1,2.1,0,0,0-.07-.72,1.49,1.49,0,0,0-.29-.56,1.36,1.36,0,0,0-.49-.36,1.62,1.62,0,0,0-.68-.14,1.51,1.51,0,0,0-.61.13,1.4,1.4,0,0,0-.47.37,1.8,1.8,0,0,0-.33.56,2.71,2.71,0,0,0-.15.72Z"/><path d="M648.91,323.62h.91l0,.95a4.7,4.7,0,0,1,.5-.5,2.54,2.54,0,0,1,.47-.33,1.78,1.78,0,0,1,.47-.17,2.83,2.83,0,0,1,.5-.05,1.72,1.72,0,0,1,1.38.54,2.38,2.38,0,0,1,.46,1.61v3.84h-1v-3.76a1.67,1.67,0,0,0-.25-1,.93.93,0,0,0-.77-.33,1.11,1.11,0,0,0-.74.25,2.65,2.65,0,0,0-.42.37c-.15.16-.32.35-.51.59v3.9h-1Z"/><path d="M660.25,329.43a5.54,5.54,0,0,1-.71.12,6.28,6.28,0,0,1-.75,0,2.38,2.38,0,0,1-1.65-.5,2,2,0,0,1-.55-1.54v-3.07h-1.65v-.86h1.65V322l1-.27v1.88h2.64v.86h-2.64v3a1.23,1.23,0,0,0,.34.95,1.43,1.43,0,0,0,1,.31,6.5,6.5,0,0,0,1.31-.18Z"/><rect class="cls-1" x="321.93" y="267" width="126" height="46"/><text class="cls-2" transform="translate(327 303.11)">Dsitribution</text><rect class="cls-1" x="502.93" y="81" width="126" height="46"/><text class="cls-2" transform="translate(508 105.11)">Peformance and <tspan x="0" y="14.4">Analytics</tspan></text><rect class="cls-1" x="321.93" y="338" width="126" height="46"/><text class="cls-2" transform="translate(327 374.11)">Demand Sinals</text><rect class="cls-4" x="724.15" y="28.66" width="85.6" height="85.6" transform="translate(174.11 563.24) rotate(-45)"/><text class="cls-2" transform="translate(752.79 78.06)">Farm <tspan x="-23.09" y="14.4">Planning AI</tspan></text><rect class="cls-5" x="753.49" y="38.94" width="26" height="26" rx="13"/><rect class="cls-5" x="776.49" y="44.95" width="7.95" height="14.31" rx="3.98"/><rect class="cls-5" x="763.83" y="28.12" width="4.42" height="14.31" rx="2.21" transform="translate(730.76 801.31) rotate(-90)"/><rect class="cls-1" x="758.01" y="46.57" width="17.43" height="6.34" rx="2.86"/><rect class="cls-5" x="748.57" y="44.95" width="7.95" height="14.31" rx="3.98"/><rect class="cls-5" x="764.84" y="33.76" width="2.84" height="10.13"/><path class="cls-6" d="M771.45,59.2h0c0,.9-.41,1.63-.91,1.63h-9c-.51,0-.92-.73-.92-1.63h0c0-.91.41-1.64.92-1.64h9C771,57.56,771.45,58.29,771.45,59.2Z"/><rect class="cls-4" x="534.15" y="154.66" width="85.6" height="85.6" transform="translate(29.36 465.8) rotate(-45)"/><text class="cls-2" transform="translate(536.39 212.06)">Orchestrator</text><rect class="cls-5" x="563.49" y="172.94" width="26" height="26" rx="13"/><rect class="cls-5" x="586.49" y="178.95" width="7.95" height="14.31" rx="3.98"/><rect class="cls-5" x="573.83" y="162.12" width="4.42" height="14.31" rx="2.21" transform="translate(406.76 745.31) rotate(-90)"/><rect class="cls-1" x="568.01" y="180.57" width="17.43" height="6.34" rx="2.86"/><rect class="cls-5" x="558.57" y="178.95" width="7.95" height="14.31" rx="3.98"/><rect class="cls-5" x="574.84" y="167.76" width="2.84" height="10.13"/><path class="cls-6" d="M581.45,193.2h0c0,.9-.41,1.63-.91,1.63h-9c-.51,0-.92-.73-.92-1.63h0c0-.91.41-1.64.92-1.64h9C581,191.56,581.45,192.29,581.45,193.2Z"/><rect class="cls-5" x="566.49" y="273.94" width="26" height="26" rx="13"/><rect class="cls-5" x="589.49" y="279.95" width="7.95" height="14.31" rx="3.98"/><rect class="cls-5" x="576.83" y="263.12" width="4.42" height="14.31" rx="2.21" transform="translate(308.76 849.31) rotate(-90)"/><rect class="cls-1" x="571.01" y="281.57" width="17.43" height="6.34" rx="2.86"/><rect class="cls-5" x="561.57" y="279.95" width="7.95" height="14.31" rx="3.98"/><rect class="cls-5" x="577.84" y="268.76" width="2.84" height="10.13"/><path class="cls-6" d="M584.45,294.2h0c0,.9-.41,1.63-.91,1.63h-9c-.51,0-.92-.73-.92-1.63h0c0-.91.41-1.64.92-1.64h9C584,292.56,584.45,293.29,584.45,294.2Z"/><rect class="cls-1" x="322.93" y="193" width="126" height="46"/><path d="M334.17,213.19a7.23,7.23,0,0,1-.08,1.06,4.1,4.1,0,0,1-.28.94,2.83,2.83,0,0,1-.48.78,2.78,2.78,0,0,1-.74.61,3.6,3.6,0,0,1-1,.39,5.78,5.78,0,0,1-1.31.14h-1.64v-7.66h2a3.57,3.57,0,0,1,2.68.92A4,4,0,0,1,334.17,213.19Zm-1.1.08a5.49,5.49,0,0,0-.15-1.38,2.23,2.23,0,0,0-.46-.91,1.87,1.87,0,0,0-.78-.5,3.61,3.61,0,0,0-1.1-.15h-.9v5.88h.78Q333.07,216.21,333.07,213.27Z"/><path d="M340.5,213.86v.36c0,.1,0,.19,0,.27h-4.13a1.85,1.85,0,0,0,.5,1.39,2,2,0,0,0,1.46.48,4.35,4.35,0,0,0,.51,0l.5-.05.46-.08.41-.1V217a7.08,7.08,0,0,1-.94.19,7.68,7.68,0,0,1-1.09.07,3.63,3.63,0,0,1-1.3-.2,2.26,2.26,0,0,1-.89-.6,2.31,2.31,0,0,1-.52-.95,4.61,4.61,0,0,1-.17-1.28,3.79,3.79,0,0,1,.18-1.18,3.11,3.11,0,0,1,.52-1,2.5,2.5,0,0,1,2-.91,2.86,2.86,0,0,1,1.09.19,2.12,2.12,0,0,1,.79.55,2.3,2.3,0,0,1,.5.86A3.7,3.7,0,0,1,340.5,213.86Zm-1.06-.15a2.1,2.1,0,0,0-.07-.72,1.65,1.65,0,0,0-.29-.56,1.36,1.36,0,0,0-.49-.36,1.62,1.62,0,0,0-.68-.14,1.51,1.51,0,0,0-.61.13,1.55,1.55,0,0,0-.48.37,1.79,1.79,0,0,0-.32.56,2.71,2.71,0,0,0-.15.72Z"/><path d="M346.33,217.11v-4.23c0-.18,0-.33,0-.45a1.26,1.26,0,0,0-.07-.28.31.31,0,0,0-.11-.14.27.27,0,0,0-.16,0,.34.34,0,0,0-.22.07,1,1,0,0,0-.22.23,3.31,3.31,0,0,0-.25.42c-.09.17-.2.38-.32.64v3.78H344V213c0-.21,0-.38,0-.52a1.61,1.61,0,0,0-.07-.31.37.37,0,0,0-.11-.15.33.33,0,0,0-.17,0,.36.36,0,0,0-.2.06.83.83,0,0,0-.21.21,3.77,3.77,0,0,0-.26.41l-.33.68v3.78h-.94v-5.88h.78l.05,1.11a5.66,5.66,0,0,1,.29-.56,1.8,1.8,0,0,1,.3-.38.84.84,0,0,1,.33-.21.92.92,0,0,1,.38-.07.85.85,0,0,1,.72.31,1.57,1.57,0,0,1,.25,1q.14-.3.27-.54a2.17,2.17,0,0,1,.29-.4,1.29,1.29,0,0,1,.34-.25,1.19,1.19,0,0,1,.44-.08c.74,0,1.11.57,1.11,1.7v4.29Z"/><path d="M352.51,217.11l0-.79a3.28,3.28,0,0,1-1,.68,2.65,2.65,0,0,1-1,.21,2.47,2.47,0,0,1-.86-.13,1.57,1.57,0,0,1-.59-.35,1.42,1.42,0,0,1-.34-.53,2,2,0,0,1-.11-.66,1.66,1.66,0,0,1,.66-1.39,3.22,3.22,0,0,1,1.95-.5h1.22v-.51a1.08,1.08,0,0,0-.34-.84,1.42,1.42,0,0,0-1-.31,4.12,4.12,0,0,0-1,.11,7.55,7.55,0,0,0-1,.31v-.92l.44-.13a3.33,3.33,0,0,1,.5-.12,4.51,4.51,0,0,1,.55-.09,5.49,5.49,0,0,1,.58,0,3.6,3.6,0,0,1,1,.12,1.86,1.86,0,0,1,.72.35,1.64,1.64,0,0,1,.46.61,2.22,2.22,0,0,1,.15.85v4.06Zm-.11-2.68h-1.3a2.46,2.46,0,0,0-.65.08,1.18,1.18,0,0,0-.45.21.84.84,0,0,0-.26.34,1,1,0,0,0-.09.44,1.2,1.2,0,0,0,.05.33,1,1,0,0,0,.17.27.74.74,0,0,0,.31.19,1.24,1.24,0,0,0,.46.07,1.94,1.94,0,0,0,.8-.21,4,4,0,0,0,1-.68Z"/><path d="M355.33,211.23h.91l0,.94a3.92,3.92,0,0,1,.5-.5,2.24,2.24,0,0,1,.47-.33,1.66,1.66,0,0,1,.47-.17,2.73,2.73,0,0,1,.5,0,1.71,1.71,0,0,1,1.37.54,2.38,2.38,0,0,1,.47,1.61v3.84h-1v-3.76a1.66,1.66,0,0,0-.26-1A.92.92,0,0,0,358,212a1.42,1.42,0,0,0-.36.05,1.56,1.56,0,0,0-.38.2,3.17,3.17,0,0,0-.42.37c-.15.16-.31.35-.5.59v3.9h-1Z"/><path d="M361.63,214.29a4.18,4.18,0,0,1,.2-1.33,2.72,2.72,0,0,1,.59-1,2.44,2.44,0,0,1,.9-.61,3.22,3.22,0,0,1,1.18-.21,5.09,5.09,0,0,1,.56,0,3.12,3.12,0,0,1,.53.11v-2.47h1v8.28h-.91l0-1.12a2.8,2.8,0,0,1-.93.92,2,2,0,0,1-1.07.3,1.76,1.76,0,0,1-1.53-.8,2.79,2.79,0,0,1-.38-.93A4.82,4.82,0,0,1,361.63,214.29Zm1-.06a3.17,3.17,0,0,0,.31,1.59,1,1,0,0,0,.89.52,1.29,1.29,0,0,0,.82-.35,4.7,4.7,0,0,0,.9-1v-2.73a2.22,2.22,0,0,0-.55-.18,3.23,3.23,0,0,0-.61-.06,1.61,1.61,0,0,0-1.29.54A2.55,2.55,0,0,0,362.67,214.23Z"/><path d="M379.7,210.34h-3.25v2.48h3.08v.88h-3.08v3.41h-1.06v-7.66h4.31Z"/><path d="M386.84,214.12a3.87,3.87,0,0,1-.19,1.26,2.81,2.81,0,0,1-.56,1,2.44,2.44,0,0,1-.88.64,3,3,0,0,1-1.19.22,3.08,3.08,0,0,1-1.13-.19,2.22,2.22,0,0,1-.85-.58,2.53,2.53,0,0,1-.53-.94,4,4,0,0,1-.19-1.3,4.1,4.1,0,0,1,.19-1.25,2.81,2.81,0,0,1,.56-1,2.48,2.48,0,0,1,.89-.63,2.76,2.76,0,0,1,1.18-.23,3.08,3.08,0,0,1,1.13.2,2.2,2.2,0,0,1,.85.57,2.7,2.7,0,0,1,.54.94A4.28,4.28,0,0,1,386.84,214.12Zm-1,0a3.45,3.45,0,0,0-.12-1,2,2,0,0,0-.35-.68,1.39,1.39,0,0,0-.54-.41,1.8,1.8,0,0,0-.71-.13,1.58,1.58,0,0,0-.78.18,1.44,1.44,0,0,0-.54.47,2.12,2.12,0,0,0-.3.7,3.7,3.7,0,0,0-.1.83,3.38,3.38,0,0,0,.12,1,1.82,1.82,0,0,0,.35.68,1.22,1.22,0,0,0,.54.41,1.61,1.61,0,0,0,.71.14,1.55,1.55,0,0,0,.78-.18,1.53,1.53,0,0,0,.54-.47,2.12,2.12,0,0,0,.3-.7A3.7,3.7,0,0,0,385.8,214.17Z"/><path d="M388.56,211.23h.93l0,1.08a3.8,3.8,0,0,1,1-.91,2,2,0,0,1,1-.28,1.66,1.66,0,0,1,1.38.59,2.64,2.64,0,0,1,.44,1.76h-1a1.85,1.85,0,0,0-.23-1.12.79.79,0,0,0-.71-.35,1.22,1.22,0,0,0-.41.07,1.7,1.7,0,0,0-.43.24,2.77,2.77,0,0,0-.46.41,7,7,0,0,0-.53.61v3.78h-1Z"/><path d="M399.88,213.86v.36c0,.1,0,.19,0,.27h-4.13a1.85,1.85,0,0,0,.5,1.39,2,2,0,0,0,1.46.48,4.35,4.35,0,0,0,.51,0l.5-.05.46-.08.41-.1V217a7.08,7.08,0,0,1-.94.19,7.78,7.78,0,0,1-1.09.07,3.63,3.63,0,0,1-1.3-.2,2.37,2.37,0,0,1-.9-.6,2.41,2.41,0,0,1-.51-.95,4.61,4.61,0,0,1-.17-1.28,3.79,3.79,0,0,1,.18-1.18,2.92,2.92,0,0,1,.52-1,2.5,2.5,0,0,1,2-.91,2.83,2.83,0,0,1,1.09.19,2.08,2.08,0,0,1,.8.55,2.44,2.44,0,0,1,.5.86A3.7,3.7,0,0,1,399.88,213.86Zm-1.06-.15a2.38,2.38,0,0,0-.07-.72,1.65,1.65,0,0,0-.29-.56,1.36,1.36,0,0,0-.49-.36,1.62,1.62,0,0,0-.68-.14,1.48,1.48,0,0,0-.61.13,1.44,1.44,0,0,0-.48.37,1.79,1.79,0,0,0-.32.56,2.71,2.71,0,0,0-.15.72Z"/><path d="M406.08,216.89a4.53,4.53,0,0,1-.82.23,4.76,4.76,0,0,1-.86.07,2.89,2.89,0,0,1-2.15-.76,3,3,0,0,1-.75-2.2,3.42,3.42,0,0,1,.22-1.27,2.63,2.63,0,0,1,.61-1,2.73,2.73,0,0,1,.93-.63,3.38,3.38,0,0,1,1.21-.22,4.64,4.64,0,0,1,.85.07,3.16,3.16,0,0,1,.76.21v1a3.28,3.28,0,0,0-.77-.29,3.75,3.75,0,0,0-.82-.09,1.85,1.85,0,0,0-.74.15,1.65,1.65,0,0,0-.61.43,2,2,0,0,0-.42.69,2.59,2.59,0,0,0-.15.91,2.2,2.2,0,0,0,.52,1.6,1.91,1.91,0,0,0,1.43.53,3.1,3.1,0,0,0,.81-.1,3,3,0,0,0,.75-.28Z"/><path d="M411.89,217.11l0-.79a3.28,3.28,0,0,1-1,.68,2.65,2.65,0,0,1-1,.21,2.43,2.43,0,0,1-.86-.13,1.5,1.5,0,0,1-.59-.35,1.42,1.42,0,0,1-.34-.53,2,2,0,0,1-.11-.66,1.66,1.66,0,0,1,.66-1.39,3.22,3.22,0,0,1,1.95-.5h1.22v-.51a1.08,1.08,0,0,0-.34-.84,1.43,1.43,0,0,0-1-.31,4,4,0,0,0-1,.11,7.55,7.55,0,0,0-1,.31v-.92l.43-.13a3.81,3.81,0,0,1,.51-.12,4.21,4.21,0,0,1,.55-.09,5.49,5.49,0,0,1,.58,0,3.6,3.6,0,0,1,1,.12,1.86,1.86,0,0,1,.72.35,1.52,1.52,0,0,1,.45.61,2,2,0,0,1,.16.85v4.06Zm-.11-2.68h-1.3a2.46,2.46,0,0,0-.65.08,1.18,1.18,0,0,0-.45.21,1,1,0,0,0-.27.34,1.23,1.23,0,0,0-.08.44,1.2,1.2,0,0,0,.05.33.77.77,0,0,0,.17.27.74.74,0,0,0,.31.19,1.18,1.18,0,0,0,.45.07,2,2,0,0,0,.81-.21,4,4,0,0,0,1-.68Z"/><path d="M419.37,215.5a1.4,1.4,0,0,1-.11.56,1.6,1.6,0,0,1-.29.44,1.94,1.94,0,0,1-.42.32,2.91,2.91,0,0,1-.51.22,2.68,2.68,0,0,1-.56.13,3.6,3.6,0,0,1-.56,0,9.36,9.36,0,0,1-1.1-.05,6.27,6.27,0,0,1-1-.17v-.94a7.48,7.48,0,0,0,1,.23,7,7,0,0,0,1,.07,2.21,2.21,0,0,0,1.08-.2.62.62,0,0,0,.35-.57.82.82,0,0,0-.05-.28.75.75,0,0,0-.21-.24,1.65,1.65,0,0,0-.45-.24l-.84-.28a6.36,6.36,0,0,1-.74-.27,2.08,2.08,0,0,1-.58-.35,1.79,1.79,0,0,1-.39-.48,1.45,1.45,0,0,1-.14-.65,1.47,1.47,0,0,1,.12-.54,1.31,1.31,0,0,1,.39-.54,2.09,2.09,0,0,1,.74-.42,3.53,3.53,0,0,1,1.17-.17,7.23,7.23,0,0,1,.77,0,7.5,7.5,0,0,1,.88.13v.91a9.1,9.1,0,0,0-.91-.18c-.29,0-.54-.05-.75-.05a2.9,2.9,0,0,0-.64.06,1.27,1.27,0,0,0-.42.16.58.58,0,0,0-.23.24.6.6,0,0,0-.07.3.64.64,0,0,0,.06.28.59.59,0,0,0,.23.25,2.13,2.13,0,0,0,.46.24,7.83,7.83,0,0,0,.78.26,6.19,6.19,0,0,1,.88.32,2.42,2.42,0,0,1,.58.37,1.23,1.23,0,0,1,.32.47A1.72,1.72,0,0,1,419.37,215.5Z"/><path d="M426.05,217a5.69,5.69,0,0,1-.72.12,6.28,6.28,0,0,1-.75,0,2.38,2.38,0,0,1-1.65-.5,2,2,0,0,1-.55-1.54v-3.07h-1.64v-.85h1.64v-1.62l1-.27v1.89h2.65v.85H423.4v3a1.23,1.23,0,0,0,.34,1,1.45,1.45,0,0,0,1,.31,4.69,4.69,0,0,0,.62-.05,5,5,0,0,0,.7-.13Z"/><path d="M432,214.4h-3.51v-1H432Z"/><path d="M330.94,226.47H329.2v-.85H332v5h1.75v.85H329v-.85h1.93Zm.36-3.31a.87.87,0,0,1,.32.06.85.85,0,0,1,.25.17.9.9,0,0,1,.17.26.78.78,0,0,1,.06.31.81.81,0,0,1-.06.31.78.78,0,0,1-.17.26.85.85,0,0,1-.25.17.88.88,0,0,1-.64,0,.85.85,0,0,1-.25-.17.78.78,0,0,1-.17-.26.81.81,0,0,1-.06-.31.78.78,0,0,1,.06-.31.9.9,0,0,1,.17-.26.85.85,0,0,1,.25-.17A.87.87,0,0,1,331.3,223.16Z"/><path d="M335.54,225.62h.9l0,.95a4.7,4.7,0,0,1,.5-.5,2.54,2.54,0,0,1,.47-.33,1.84,1.84,0,0,1,.48-.17,2.63,2.63,0,0,1,.49,0,1.72,1.72,0,0,1,1.38.54,2.38,2.38,0,0,1,.46,1.61v3.84h-1v-3.76a1.67,1.67,0,0,0-.25-1,.93.93,0,0,0-.77-.33,1.11,1.11,0,0,0-.74.25,2.65,2.65,0,0,0-.42.37c-.15.16-.32.35-.51.59v3.9h-1Z"/><path d="M346.37,226.46a1.41,1.41,0,0,1,.25.47,1.92,1.92,0,0,1,.1.59,2.07,2.07,0,0,1-.17.84,1.9,1.9,0,0,1-.47.65,2.09,2.09,0,0,1-.73.41,2.85,2.85,0,0,1-.94.15,3.11,3.11,0,0,1-.69-.07,2.08,2.08,0,0,1-.51-.2c-.07.11-.14.21-.19.31a.72.72,0,0,0-.07.33.44.44,0,0,0,.21.37,1,1,0,0,0,.57.15l1.54.06a4.06,4.06,0,0,1,.82.11,2.16,2.16,0,0,1,.63.29,1.41,1.41,0,0,1,.42.46,1.34,1.34,0,0,1,.15.64,1.75,1.75,0,0,1-.17.75,1.71,1.71,0,0,1-.53.62,2.73,2.73,0,0,1-.89.42,4.58,4.58,0,0,1-1.3.16,5.35,5.35,0,0,1-1.22-.12,2.7,2.7,0,0,1-.82-.31,1.43,1.43,0,0,1-.47-.48,1.4,1.4,0,0,1-.14-.61,1.32,1.32,0,0,1,.2-.75,2.12,2.12,0,0,1,.61-.63.78.78,0,0,1-.26-.17.76.76,0,0,1-.18-.23,1,1,0,0,1-.11-.27,1.35,1.35,0,0,1,0-.28,1.37,1.37,0,0,1,.18-.69,3.48,3.48,0,0,1,.43-.6c-.08-.09-.14-.18-.2-.26a2.44,2.44,0,0,1-.14-.28,1.19,1.19,0,0,1-.1-.32,2.41,2.41,0,0,1,0-.4,2.05,2.05,0,0,1,.17-.83,1.7,1.7,0,0,1,.47-.65,2.14,2.14,0,0,1,.72-.42,2.85,2.85,0,0,1,.94-.15,2.77,2.77,0,0,1,.42,0l.35.07h2.13v.84Zm-3.54,5.9a.62.62,0,0,0,.43.6,3.06,3.06,0,0,0,1.21.19,3.72,3.72,0,0,0,.82-.08,1.54,1.54,0,0,0,.53-.24.8.8,0,0,0,.29-.32.88.88,0,0,0,.09-.38.57.57,0,0,0-.29-.53,2.14,2.14,0,0,0-.9-.2l-1.54-.05a3,3,0,0,0-.31.25,1.1,1.1,0,0,0-.2.25.87.87,0,0,0-.1.25A1.15,1.15,0,0,0,342.83,232.36Zm.31-4.81a1.4,1.4,0,0,0,.09.51,1.28,1.28,0,0,0,.27.4,1.2,1.2,0,0,0,.4.26,1.36,1.36,0,0,0,.51.09,1.27,1.27,0,0,0,.54-.11,1,1,0,0,0,.4-.27,1.33,1.33,0,0,0,.25-.41,1.26,1.26,0,0,0,.08-.47,1.46,1.46,0,0,0-.09-.52,1.2,1.2,0,0,0-.26-.4,1.28,1.28,0,0,0-.4-.25,1.46,1.46,0,0,0-.52-.09,1.33,1.33,0,0,0-.54.1,1.3,1.3,0,0,0-.4.28,1.1,1.1,0,0,0-.24.4A1.28,1.28,0,0,0,343.14,227.55Z"/><path d="M360.93,231.51h-1.14l-.53-1.67h-3.19l-.54,1.67h-1.08l2.54-7.66h1.43Zm-2-2.6-1.29-4.1-1.3,4.1Z"/><path d="M366.16,226.46a1.43,1.43,0,0,1,.26.47,1.92,1.92,0,0,1,.09.59,2.07,2.07,0,0,1-.17.84,1.9,1.9,0,0,1-.47.65,2,2,0,0,1-.73.41,2.75,2.75,0,0,1-.93.15,3.14,3.14,0,0,1-.7-.07,2.08,2.08,0,0,1-.51-.2,3.49,3.49,0,0,0-.18.31.73.73,0,0,0-.08.33.44.44,0,0,0,.21.37,1.09,1.09,0,0,0,.57.15l1.55.06a4.06,4.06,0,0,1,.81.11,2.22,2.22,0,0,1,.64.29,1.5,1.5,0,0,1,.41.46,1.34,1.34,0,0,1,.15.64,1.62,1.62,0,0,1-.17.75,1.78,1.78,0,0,1-.52.62,2.89,2.89,0,0,1-.9.42,4.53,4.53,0,0,1-1.3.16,5.26,5.26,0,0,1-1.21-.12,2.67,2.67,0,0,1-.83-.31,1.31,1.31,0,0,1-.46-.48,1.28,1.28,0,0,1-.15-.61,1.4,1.4,0,0,1,.2-.75,2.25,2.25,0,0,1,.61-.63.78.78,0,0,1-.26-.17,1.3,1.3,0,0,1-.18-.23,1.53,1.53,0,0,1-.11-.27,1.33,1.33,0,0,1,0-.28,1.37,1.37,0,0,1,.18-.69,4,4,0,0,1,.42-.6c-.07-.09-.14-.18-.19-.26a1.51,1.51,0,0,1-.15-.28,3,3,0,0,1-.1-.32,2.41,2.41,0,0,1,0-.4,2.05,2.05,0,0,1,.17-.83,1.81,1.81,0,0,1,.47-.65,2.14,2.14,0,0,1,.72-.42,2.87,2.87,0,0,1,.95-.15,2.73,2.73,0,0,1,.41,0l.35.07h2.14v.84Zm-3.54,5.9a.63.63,0,0,0,.44.6,3,3,0,0,0,1.2.19,3.72,3.72,0,0,0,.82-.08,1.54,1.54,0,0,0,.53-.24.73.73,0,0,0,.29-.32.88.88,0,0,0,.09-.38.57.57,0,0,0-.29-.53,2.1,2.1,0,0,0-.9-.2l-1.53-.05a2.39,2.39,0,0,0-.32.25,1.1,1.1,0,0,0-.2.25,1.3,1.3,0,0,0-.1.25A1.15,1.15,0,0,0,362.62,232.36Zm.31-4.81a1.4,1.4,0,0,0,.1.51,1.11,1.11,0,0,0,.26.4,1.2,1.2,0,0,0,.4.26,1.46,1.46,0,0,0,.52.09,1.33,1.33,0,0,0,.54-.11,1.13,1.13,0,0,0,.4-.27,1.3,1.3,0,0,0,.24-.41,1.34,1.34,0,0,0,0-1,1.2,1.2,0,0,0-.26-.4,1.18,1.18,0,0,0-.4-.25,1.44,1.44,0,0,0-.51-.09,1.35,1.35,0,0,0-.55.1,1.44,1.44,0,0,0-.4.28,1.47,1.47,0,0,0-.24.4A1.28,1.28,0,0,0,362.93,227.55Z"/><path d="M373.49,228.26v.36c0,.1,0,.19,0,.27h-4.13a1.85,1.85,0,0,0,.5,1.39,2,2,0,0,0,1.46.48,4.35,4.35,0,0,0,.51,0l.5-.05.46-.08.41-.1v.84a7.08,7.08,0,0,1-.94.19,7.78,7.78,0,0,1-1.09.07,3.82,3.82,0,0,1-1.3-.2,2.3,2.3,0,0,1-.9-.6,2.41,2.41,0,0,1-.51-.95,4.61,4.61,0,0,1-.17-1.28,3.79,3.79,0,0,1,.18-1.18,2.92,2.92,0,0,1,.52-1,2.47,2.47,0,0,1,.84-.66,2.44,2.44,0,0,1,1.13-.25,2.83,2.83,0,0,1,1.09.19,2.08,2.08,0,0,1,.8.55,2.44,2.44,0,0,1,.5.86A3.7,3.7,0,0,1,373.49,228.26Zm-1.06-.15a2.38,2.38,0,0,0-.07-.72,1.65,1.65,0,0,0-.29-.56,1.45,1.45,0,0,0-.49-.36,1.65,1.65,0,0,0-.68-.14,1.48,1.48,0,0,0-.61.13,1.44,1.44,0,0,0-.48.37,1.79,1.79,0,0,0-.32.56,2.71,2.71,0,0,0-.15.72Z"/><path d="M375.12,225.62H376l0,.95a3.92,3.92,0,0,1,.5-.5,2.54,2.54,0,0,1,.47-.33,1.66,1.66,0,0,1,.47-.17,2.73,2.73,0,0,1,.5,0,1.7,1.7,0,0,1,1.37.54,2.38,2.38,0,0,1,.47,1.61v3.84h-1v-3.76a1.66,1.66,0,0,0-.26-1,.92.92,0,0,0-.77-.33,1.49,1.49,0,0,0-.36,0,1.51,1.51,0,0,0-.37.2,2.65,2.65,0,0,0-.42.37c-.15.16-.32.35-.51.59v3.9h-1Z"/><path d="M386.46,231.43a5.41,5.41,0,0,1-.72.12,6.06,6.06,0,0,1-.75,0,2.41,2.41,0,0,1-1.65-.5,2,2,0,0,1-.54-1.54v-3.07h-1.65v-.86h1.65V224l1-.27v1.88h2.64v.86h-2.64v3a1.26,1.26,0,0,0,.33.95,1.48,1.48,0,0,0,1,.31,4.68,4.68,0,0,0,.61,0,4.74,4.74,0,0,0,.7-.13Z"/><rect class="cls-5" x="312.49" y="175.94" width="26" height="26" rx="13"/><rect class="cls-5" x="335.49" y="181.95" width="7.95" height="14.31" rx="3.98"/><rect class="cls-5" x="322.83" y="165.12" width="4.42" height="14.31" rx="2.21" transform="translate(152.76 497.31) rotate(-90)"/><rect class="cls-1" x="317.01" y="183.57" width="17.43" height="6.34" rx="2.86"/><rect class="cls-5" x="307.57" y="181.95" width="7.95" height="14.31" rx="3.98"/><rect class="cls-5" x="323.84" y="170.76" width="2.84" height="10.13"/><path class="cls-6" d="M330.45,196.2h0c0,.9-.41,1.63-.91,1.63h-9c-.51,0-.92-.73-.92-1.63h0c0-.91.41-1.64.92-1.64h9C330,194.56,330.45,195.29,330.45,196.2Z"/><rect class="cls-4" x="831.04" y="264.56" width="65.8" height="65.8" transform="translate(42.71 698.02) rotate(-45)"/><text class="cls-2" transform="translate(834.29 294.06)">Optimized <tspan x="6.6" y="14.4">Storage</tspan></text><rect class="cls-1" x="728.04" y="332.56" width="65.8" height="65.8" transform="translate(-35.54 645.11) rotate(-45)"/><text class="cls-2" transform="translate(745.79 359.06)">Cold<tspan x="-9.9" y="14.4">Storage</tspan></text><line class="cls-7" x1="299.43" y1="49.5" x2="494.93" y2="23"/><line class="cls-8" x1="617.93" y1="11" x2="733.93" y2="44"/><line class="cls-7" x1="708.93" y1="70" x2="300.43" y2="56.5"/><line class="cls-7" x1="556.43" y1="51.5" x2="563.43" y2="81.5"/><line class="cls-7" x1="516.43" y1="197.5" x2="449.43" y2="215.5"/><line class="cls-7" x1="448.43" y1="286.5" x2="547.43" y2="228.5"/><line class="cls-7" x1="449.43" y1="360.5" x2="563.43" y2="244.5"/><line class="cls-7" x1="612.43" y1="223.5" x2="639.43" y2="290.5"/><line class="cls-7" x1="576.43" y1="315.5" x2="448.43" y2="286.5"/><line class="cls-7" x1="767.43" y1="131.5" x2="766.43" y2="190.5"/><line class="cls-7" x1="764.43" y1="235.5" x2="840.43" y2="274.5"/><line class="cls-7" x1="735.43" y1="344.5" x2="704.43" y2="324.5"/><line class="cls-7" x1="764.43" y1="235.5" x2="761.43" y2="318.5"/><line class="cls-7" x1="381.43" y1="239.5" x2="383.43" y2="265.5"/><line class="cls-7" x1="375.43" y1="313.5" x2="384.43" y2="337.5"/><line class="cls-7" x1="542.43" y1="169.5" x2="542.43" y2="127.5"/></g></g></svg>