<svg xmlns="http://www.w3.org/2000/svg" viewBox="0 0 878.93 409.07"><defs><style>.cls-1{fill:#8bdfff;}.cls-2{font-size:12px;}.cls-2,.cls-3{font-family:Consolas;}.cls-3{font-size:20px;}.cls-3,.cls-6{fill:#fff;}.cls-4{fill:#ffeea2;}.cls-5{fill:#282c34;}.cls-7,.cls-8{fill:none;}.cls-7{stroke:#fff;stroke-miterlimit:10;}</style></defs><g id="Layer_2" data-name="Layer 2"><g id="Layer_1-2" data-name="Layer 1"><rect class="cls-1" x="154.93" y="82.93" width="126" height="46"/><text class="cls-2" transform="translate(160 123.04)">DataLake</text><rect class="cls-1" x="154.93" y="172.93" width="126" height="46"/><text class="cls-2" transform="translate(160 213.04)">Materials DB</text><rect class="cls-1" x="307.93" y="21.93" width="126" height="46"/><text class="cls-2" transform="translate(313 49.21)">Production <tspan x="0" y="14.4">Monitoring</tspan></text><rect class="cls-1" x="499.93" y="21.93" width="126" height="46"/><text class="cls-2" transform="translate(505 49.21)">Materials <tspan x="0" y="14.4">Autopilot</tspan></text><rect class="cls-1" x="593.93" y="144.93" width="126" height="46"/><text class="cls-2" transform="translate(599 172.21)">Warehouse <tspan x="0" y="14.4">Management</tspan></text><text class="cls-3" transform="translate(0 32.56)">Materials <tspan x="0" y="24">Flow </tspan><tspan x="0" y="48">Autopilot</tspan></text><rect class="cls-4" x="417.15" y="122.59" width="85.6" height="85.6" transform="translate(17.77 373.67) rotate(-45)"/><text class="cls-2" transform="translate(419.39 180)">Orchestrator</text><rect class="cls-5" x="446.49" y="140.87" width="26" height="26" rx="13"/><rect class="cls-5" x="469.49" y="146.89" width="7.95" height="14.31" rx="3.98"/><rect class="cls-5" x="456.83" y="130.05" width="4.42" height="14.31" rx="2.21" transform="translate(321.83 596.25) rotate(-90)"/><rect class="cls-1" x="451.01" y="148.51" width="17.43" height="6.34" rx="2.86"/><rect class="cls-5" x="441.57" y="146.89" width="7.95" height="14.31" rx="3.98"/><rect class="cls-5" x="457.84" y="135.69" width="2.84" height="10.13"/><path class="cls-6" d="M464.45,161.13h0c0,.9-.41,1.63-.91,1.63h-9c-.51,0-.92-.73-.92-1.63h0c0-.9.41-1.63.92-1.63h9C464,159.5,464.45,160.23,464.45,161.13Z"/><rect class="cls-1" x="635.93" y="258.93" width="126" height="46"/><path d="M646.84,281a1.87,1.87,0,0,1-.84,1.63,2.79,2.79,0,0,1-1,.41,5.2,5.2,0,0,1-1.23.14,6.08,6.08,0,0,1-.61,0,5.42,5.42,0,0,1-.58-.06l-.52-.08a3.83,3.83,0,0,1-.45-.1v-1a5.09,5.09,0,0,0,1,.26,6.62,6.62,0,0,0,1.24.1,4.12,4.12,0,0,0,.86-.08,1.63,1.63,0,0,0,.58-.24.92.92,0,0,0,.33-.38,1.12,1.12,0,0,0,.1-.5.89.89,0,0,0-.17-.54,2.18,2.18,0,0,0-.45-.39,4.37,4.37,0,0,0-.65-.31l-.73-.3c-.25-.1-.5-.21-.74-.33a3.22,3.22,0,0,1-.64-.42,2,2,0,0,1-.45-.57,1.61,1.61,0,0,1-.18-.78,2,2,0,0,1,.17-.78,1.82,1.82,0,0,1,.51-.67,2.51,2.51,0,0,1,.89-.48,4.1,4.1,0,0,1,1.29-.18H645l.45,0,.46.08c.15,0,.29.05.42.09v.93a7.21,7.21,0,0,0-.9-.19,5.3,5.3,0,0,0-.88-.07,2.28,2.28,0,0,0-1.31.3.93.93,0,0,0-.43.8.79.79,0,0,0,.18.53,1.47,1.47,0,0,0,.45.4,3.47,3.47,0,0,0,.64.32l.74.3c.25.1.49.21.73.33a3.33,3.33,0,0,1,.65.43,2.2,2.2,0,0,1,.45.59A1.74,1.74,0,0,1,646.84,281Z"/><path d="M653.26,283h-.91l0-1a4.87,4.87,0,0,1-.5.51,2.3,2.3,0,0,1-.47.32,1.69,1.69,0,0,1-.47.18,2.65,2.65,0,0,1-.5,0,1.7,1.7,0,0,1-1.37-.54,2.38,2.38,0,0,1-.46-1.61v-3.84h1v3.76q0,1.35,1,1.35a1.5,1.5,0,0,0,.37,0,1.4,1.4,0,0,0,.38-.2,2.65,2.65,0,0,0,.42-.37,5.61,5.61,0,0,0,.5-.59v-3.9h1Z"/><path d="M660.16,280a3.79,3.79,0,0,1-.22,1.37,2.68,2.68,0,0,1-.61,1,2.41,2.41,0,0,1-.91.58,3.25,3.25,0,0,1-1.14.19,5.12,5.12,0,0,1-.56,0,3.78,3.78,0,0,1-.57-.1v2.46h-1v-8.28H656l.07,1a2.58,2.58,0,0,1,.93-.84,2.35,2.35,0,0,1,1.08-.25,1.83,1.83,0,0,1,.89.21,1.8,1.8,0,0,1,.63.6,2.49,2.49,0,0,1,.39.92A5.1,5.1,0,0,1,660.16,280Zm-1,.05a5.51,5.51,0,0,0-.07-.85,2.23,2.23,0,0,0-.21-.66,1.23,1.23,0,0,0-.38-.43.89.89,0,0,0-.54-.16,1.44,1.44,0,0,0-.4.06,1.77,1.77,0,0,0-.41.21,3.5,3.5,0,0,0-.45.38,6.59,6.59,0,0,0-.51.59V282a4.06,4.06,0,0,0,.59.19,3.23,3.23,0,0,0,.61.06,1.61,1.61,0,0,0,1.3-.55A2.62,2.62,0,0,0,659.12,280Z"/><path d="M666.76,280a4,4,0,0,1-.22,1.37,2.68,2.68,0,0,1-.61,1,2.49,2.49,0,0,1-.91.58,3.25,3.25,0,0,1-1.14.19,5.12,5.12,0,0,1-.56,0,3.78,3.78,0,0,1-.57-.1v2.46h-1v-8.28h.91l.06,1a2.68,2.68,0,0,1,.94-.84,2.32,2.32,0,0,1,1.08-.25,1.79,1.79,0,0,1,.88.21,1.75,1.75,0,0,1,.64.6,2.87,2.87,0,0,1,.39.92A5.1,5.1,0,0,1,666.76,280Zm-1,.05a5.51,5.51,0,0,0-.07-.85,2.22,2.22,0,0,0-.22-.66,1.12,1.12,0,0,0-.37-.43.92.92,0,0,0-.55-.16,1.37,1.37,0,0,0-.39.06,1.77,1.77,0,0,0-.41.21,3.5,3.5,0,0,0-.45.38,6.59,6.59,0,0,0-.51.59V282a4.06,4.06,0,0,0,.59.19,3.23,3.23,0,0,0,.61.06,1.62,1.62,0,0,0,1.3-.55A2.62,2.62,0,0,0,665.72,280Z"/><path d="M670.33,275.6h-1.74v-.84h2.77v7.43h1.76V283H668.4v-.85h1.93Z"/><path d="M680.16,277.16l-2,5.26a9.47,9.47,0,0,1-.64,1.38,3.88,3.88,0,0,1-.72.95,2.42,2.42,0,0,1-.86.55,2.89,2.89,0,0,1-1,.18h-.28l-.27,0v-.92l.29,0,.32,0a1.46,1.46,0,0,0,.52-.09,1.33,1.33,0,0,0,.46-.26,2.22,2.22,0,0,0,.42-.48,4.63,4.63,0,0,0,.38-.71l-2.34-5.88h1.16l1.48,3.89.3.91.34-.93,1.38-3.87Z"/><path d="M692.7,276.27h-3.25v2.49h3.08v.87h-3.08V283h-1.06v-7.66h4.31Z"/><path d="M699.84,280.05a3.87,3.87,0,0,1-.19,1.26,2.86,2.86,0,0,1-.56,1,2.54,2.54,0,0,1-.88.63,3,3,0,0,1-1.19.23,3.08,3.08,0,0,1-1.13-.2,2.12,2.12,0,0,1-.85-.58,2.53,2.53,0,0,1-.53-.94,4,4,0,0,1-.19-1.3,4.15,4.15,0,0,1,.19-1.25,2.9,2.9,0,0,1,.56-1,2.48,2.48,0,0,1,.89-.63,2.92,2.92,0,0,1,1.18-.23,3.08,3.08,0,0,1,1.13.2,2.2,2.2,0,0,1,.85.57,2.7,2.7,0,0,1,.54.94A4.28,4.28,0,0,1,699.84,280.05Zm-1,.05a3.38,3.38,0,0,0-.12-1,1.9,1.9,0,0,0-.35-.68,1.3,1.3,0,0,0-.54-.41,1.8,1.8,0,0,0-.71-.14,1.58,1.58,0,0,0-.78.18,1.56,1.56,0,0,0-.54.48,2.16,2.16,0,0,0-.3.69,3.7,3.7,0,0,0-.1.83,3.38,3.38,0,0,0,.12.95,1.87,1.87,0,0,0,.35.69,1.3,1.3,0,0,0,.54.41,1.76,1.76,0,0,0,.71.13,1.5,1.5,0,0,0,1.32-.65,2.12,2.12,0,0,0,.3-.7A3.7,3.7,0,0,0,698.8,280.1Z"/><path d="M701.56,277.16h.93l0,1.08a3.8,3.8,0,0,1,1-.91,2.12,2.12,0,0,1,1-.28,1.66,1.66,0,0,1,1.38.59,2.64,2.64,0,0,1,.44,1.76h-1a1.87,1.87,0,0,0-.23-1.12.82.82,0,0,0-.71-.35,1.53,1.53,0,0,0-.41.07,1.7,1.7,0,0,0-.43.24,3.31,3.31,0,0,0-.46.41,7,7,0,0,0-.53.61V283h-1Z"/><path d="M712.88,279.79v.36c0,.1,0,.19,0,.28h-4.13a1.84,1.84,0,0,0,.5,1.38,2,2,0,0,0,1.46.49l.51,0,.5-.06.46-.08.41-.1v.84a7.08,7.08,0,0,1-.94.19,7.77,7.77,0,0,1-1.09.08,3.62,3.62,0,0,1-1.3-.21,2.35,2.35,0,0,1-.9-.59,2.46,2.46,0,0,1-.51-1,4.56,4.56,0,0,1-.17-1.28,3.77,3.77,0,0,1,.18-1.17,3,3,0,0,1,.52-1,2.5,2.5,0,0,1,2-.91,2.83,2.83,0,0,1,1.09.2,2.06,2.06,0,0,1,.8.54,2.48,2.48,0,0,1,.5.87A3.59,3.59,0,0,1,712.88,279.79Zm-1.06-.15a2.38,2.38,0,0,0-.07-.72,1.75,1.75,0,0,0-.29-.56A1.48,1.48,0,0,0,711,278a1.62,1.62,0,0,0-.68-.13,1.33,1.33,0,0,0-.61.13,1.29,1.29,0,0,0-.48.36,1.91,1.91,0,0,0-.32.56,2.71,2.71,0,0,0-.15.72Z"/><path d="M719.08,282.82a3.84,3.84,0,0,1-.82.23,4.76,4.76,0,0,1-.86.07,2.93,2.93,0,0,1-2.15-.75,3,3,0,0,1-.75-2.21,3.42,3.42,0,0,1,.22-1.27,2.63,2.63,0,0,1,.61-1,2.58,2.58,0,0,1,.93-.62,3.18,3.18,0,0,1,1.21-.22,5.77,5.77,0,0,1,.85.06,3.16,3.16,0,0,1,.76.21v1a3.28,3.28,0,0,0-.77-.29,3.75,3.75,0,0,0-.82-.09,1.85,1.85,0,0,0-.74.15,1.78,1.78,0,0,0-.61.43,2,2,0,0,0-.42.69,2.59,2.59,0,0,0-.15.91,2.19,2.19,0,0,0,.52,1.6,1.91,1.91,0,0,0,1.43.53,3.59,3.59,0,0,0,.81-.09,3.42,3.42,0,0,0,.75-.29Z"/><path d="M724.89,283l0-.79a3.32,3.32,0,0,1-1,.69,2.65,2.65,0,0,1-1,.21A2.68,2.68,0,0,1,722,283a1.64,1.64,0,0,1-.59-.36,1.34,1.34,0,0,1-.34-.53,2,2,0,0,1-.11-.66,1.66,1.66,0,0,1,.66-1.39,3.22,3.22,0,0,1,1.95-.5h1.22v-.51a1.08,1.08,0,0,0-.34-.84,1.43,1.43,0,0,0-1-.31,4.6,4.6,0,0,0-1,.11,7.66,7.66,0,0,0-1,.32v-.92l.43-.14a3.81,3.81,0,0,1,.51-.12c.17,0,.35-.06.55-.09a5.49,5.49,0,0,1,.58,0,3.6,3.6,0,0,1,1,.12,2,2,0,0,1,.72.36,1.49,1.49,0,0,1,.45.6,2.06,2.06,0,0,1,.16.86V283Zm-.11-2.68h-1.3a2.46,2.46,0,0,0-.65.08,1.05,1.05,0,0,0-.45.22.86.86,0,0,0-.27.33,1.25,1.25,0,0,0-.08.45,1.13,1.13,0,0,0,.05.32.81.81,0,0,0,.17.28.86.86,0,0,0,.31.19,1.42,1.42,0,0,0,.45.07,1.83,1.83,0,0,0,.81-.22,4.21,4.21,0,0,0,1-.67Z"/><path d="M732.37,281.44a1.38,1.38,0,0,1-.11.55,1.46,1.46,0,0,1-.29.44,1.67,1.67,0,0,1-.42.32,2.94,2.94,0,0,1-.51.23,5.07,5.07,0,0,1-.56.13,5.46,5.46,0,0,1-.56,0,9.23,9.23,0,0,1-1.1-.06,6.27,6.27,0,0,1-1-.17V282a9.29,9.29,0,0,0,1,.22,7,7,0,0,0,1,.07,2.35,2.35,0,0,0,1.08-.19.65.65,0,0,0,.35-.57.88.88,0,0,0,0-.29.75.75,0,0,0-.21-.24,2,2,0,0,0-.45-.23c-.21-.09-.49-.18-.84-.29a4.94,4.94,0,0,1-.74-.26,2.38,2.38,0,0,1-.58-.36,1.53,1.53,0,0,1-.39-.48,1.45,1.45,0,0,1-.14-.65,1.47,1.47,0,0,1,.12-.54,1.37,1.37,0,0,1,.39-.54,2.09,2.09,0,0,1,.74-.42,3.53,3.53,0,0,1,1.17-.17c.23,0,.49,0,.77,0s.57.07.88.13v.91a6.83,6.83,0,0,0-.91-.17,5.6,5.6,0,0,0-.75-.06,2.9,2.9,0,0,0-.64.06,1.27,1.27,0,0,0-.42.16.58.58,0,0,0-.23.24.6.6,0,0,0-.07.3.72.72,0,0,0,.06.29.64.64,0,0,0,.23.24,2.13,2.13,0,0,0,.46.24q.3.12.78.27a6.28,6.28,0,0,1,.88.31,2.43,2.43,0,0,1,.58.38,1.2,1.2,0,0,1,.32.46A1.78,1.78,0,0,1,732.37,281.44Z"/><path d="M739.05,283a4.33,4.33,0,0,1-.72.12,6.28,6.28,0,0,1-.75,0,2.33,2.33,0,0,1-1.65-.5,2,2,0,0,1-.55-1.54V278h-1.64v-.85h1.64v-1.62l1-.26v1.88h2.65V278H736.4v3a1.23,1.23,0,0,0,.34.95,1.4,1.4,0,0,0,1,.31,4.59,4.59,0,0,0,.62,0c.22,0,.45-.08.7-.14Z"/><path d="M745,280.33h-3.51v-1H745Z"/><path d="M643.94,292.4H642.2v-.84H645v5h1.75v.85H642v-.85h1.93Zm.36-3.31a.87.87,0,0,1,.32.06.72.72,0,0,1,.25.18.74.74,0,0,1,.17.25.81.81,0,0,1,.06.31.81.81,0,0,1-.23.57.88.88,0,0,1-.25.18.88.88,0,0,1-.64,0,.88.88,0,0,1-.25-.18.81.81,0,0,1-.23-.57.81.81,0,0,1,.06-.31.74.74,0,0,1,.17-.25.72.72,0,0,1,.25-.18A.87.87,0,0,1,644.3,289.09Z"/><path d="M648.54,291.56h.9l0,.95a4.88,4.88,0,0,1,.5-.51,3,3,0,0,1,.47-.32,1.88,1.88,0,0,1,.48-.18,2.63,2.63,0,0,1,.49-.05,1.72,1.72,0,0,1,1.38.54,2.4,2.4,0,0,1,.46,1.61v3.84h-1v-3.76a1.67,1.67,0,0,0-.25-1,.93.93,0,0,0-.77-.33,1.15,1.15,0,0,0-.37.06,1.19,1.19,0,0,0-.37.19,3.27,3.27,0,0,0-.42.37c-.15.16-.32.35-.51.59v3.9h-1Z"/><path d="M659.37,292.39a1.57,1.57,0,0,1,.25.48,1.87,1.87,0,0,1,.1.59,2.05,2.05,0,0,1-.17.83,1.9,1.9,0,0,1-.47.65,2.29,2.29,0,0,1-.73.42,2.85,2.85,0,0,1-.94.15,3.1,3.1,0,0,1-.69-.08,1.75,1.75,0,0,1-.51-.2c-.07.11-.14.21-.19.31a.72.72,0,0,0-.07.33.44.44,0,0,0,.21.37,1,1,0,0,0,.57.16l1.54.06a3,3,0,0,1,.82.11,1.92,1.92,0,0,1,.63.28,1.35,1.35,0,0,1,.42.47,1.29,1.29,0,0,1,.15.64,1.65,1.65,0,0,1-.7,1.36,2.54,2.54,0,0,1-.89.42,4.58,4.58,0,0,1-1.3.16,6.05,6.05,0,0,1-1.22-.11,2.7,2.7,0,0,1-.82-.32,1.27,1.27,0,0,1-.47-.48,1.4,1.4,0,0,1-.14-.61,1.32,1.32,0,0,1,.2-.75,2.09,2.09,0,0,1,.61-.62,1,1,0,0,1-.26-.18.76.76,0,0,1-.18-.23.81.81,0,0,1-.11-.27,1.26,1.26,0,0,1,0-.27,1.38,1.38,0,0,1,.18-.7,3.48,3.48,0,0,1,.43-.6,2.26,2.26,0,0,1-.2-.26,2.44,2.44,0,0,1-.14-.28,1.19,1.19,0,0,1-.1-.32,2.41,2.41,0,0,1,0-.4,2.05,2.05,0,0,1,.17-.83,1.78,1.78,0,0,1,.47-.65,2.14,2.14,0,0,1,.72-.42,2.85,2.85,0,0,1,.94-.15,2.77,2.77,0,0,1,.42,0l.35.08h2.13v.83Zm-3.54,5.9a.63.63,0,0,0,.43.61,3.26,3.26,0,0,0,1.21.19,3.15,3.15,0,0,0,.82-.09,1.75,1.75,0,0,0,.53-.23.89.89,0,0,0,.29-.33.85.85,0,0,0,.09-.38.58.58,0,0,0-.29-.53,2,2,0,0,0-.9-.19l-1.54-.06a3,3,0,0,0-.31.25,1.36,1.36,0,0,0-.2.25.93.93,0,0,0-.1.26A1,1,0,0,0,655.83,298.29Zm.31-4.81a1.46,1.46,0,0,0,.09.52,1.36,1.36,0,0,0,.27.39,1.2,1.2,0,0,0,.4.26,1.36,1.36,0,0,0,.51.09,1.27,1.27,0,0,0,.54-.1,1.07,1.07,0,0,0,.4-.28,1.22,1.22,0,0,0,.25-.41,1.26,1.26,0,0,0,.08-.47,1.46,1.46,0,0,0-.09-.52,1.16,1.16,0,0,0-.26-.39,1.31,1.31,0,0,0-.4-.26,1.46,1.46,0,0,0-.52-.09,1.33,1.33,0,0,0-.54.11,1.28,1.28,0,0,0-.4.27,1.06,1.06,0,0,0-.24.41A1.27,1.27,0,0,0,656.14,293.48Z"/><path d="M673.93,297.44h-1.14l-.53-1.67h-3.19l-.54,1.67h-1.08l2.54-7.66h1.43Zm-2-2.6-1.29-4.1-1.3,4.1Z"/><path d="M679.16,292.39a1.59,1.59,0,0,1,.26.48,1.87,1.87,0,0,1,.09.59,2.05,2.05,0,0,1-.17.83,1.9,1.9,0,0,1-.47.65,2.18,2.18,0,0,1-.73.42,2.75,2.75,0,0,1-.93.15,3.13,3.13,0,0,1-.7-.08,1.75,1.75,0,0,1-.51-.2,3.49,3.49,0,0,0-.18.31.73.73,0,0,0-.08.33.44.44,0,0,0,.21.37,1.09,1.09,0,0,0,.57.16l1.55.06a3,3,0,0,1,.81.11,2,2,0,0,1,.64.28,1.42,1.42,0,0,1,.41.47,1.29,1.29,0,0,1,.15.64,1.58,1.58,0,0,1-.17.74,1.78,1.78,0,0,1-.52.62,2.68,2.68,0,0,1-.9.42,4.53,4.53,0,0,1-1.3.16,6,6,0,0,1-1.21-.11,2.66,2.66,0,0,1-.83-.32,1.17,1.17,0,0,1-.46-.48,1.28,1.28,0,0,1-.15-.61,1.4,1.4,0,0,1,.2-.75,2.23,2.23,0,0,1,.61-.62,1,1,0,0,1-.26-.18,1.3,1.3,0,0,1-.18-.23,1.09,1.09,0,0,1-.11-.27,1.24,1.24,0,0,1,0-.27,1.38,1.38,0,0,1,.18-.7,4,4,0,0,1,.42-.6,2.14,2.14,0,0,1-.19-.26,1.51,1.51,0,0,1-.15-.28,3,3,0,0,1-.1-.32,2.41,2.41,0,0,1,0-.4,2.05,2.05,0,0,1,.17-.83,1.9,1.9,0,0,1,.47-.65,2.14,2.14,0,0,1,.72-.42,2.87,2.87,0,0,1,1-.15,2.73,2.73,0,0,1,.41,0l.35.08h2.14v.83Zm-3.54,5.9a.64.64,0,0,0,.44.61,3.2,3.2,0,0,0,1.2.19,3.15,3.15,0,0,0,.82-.09,1.75,1.75,0,0,0,.53-.23.81.81,0,0,0,.29-.33.85.85,0,0,0,.09-.38.58.58,0,0,0-.29-.53,2,2,0,0,0-.9-.19l-1.53-.06a2.39,2.39,0,0,0-.32.25,1.36,1.36,0,0,0-.2.25,1.39,1.39,0,0,0-.1.26A1,1,0,0,0,675.62,298.29Zm.31-4.81a1.46,1.46,0,0,0,.1.52,1.16,1.16,0,0,0,.26.39,1.2,1.2,0,0,0,.4.26,1.46,1.46,0,0,0,.52.09,1.33,1.33,0,0,0,.54-.1,1.15,1.15,0,0,0,.4-.28,1.2,1.2,0,0,0,.24-.41,1.34,1.34,0,0,0,0-1,1.16,1.16,0,0,0-.26-.39,1.2,1.2,0,0,0-.4-.26,1.44,1.44,0,0,0-.51-.09,1.35,1.35,0,0,0-.55.11,1.41,1.41,0,0,0-.4.27,1.38,1.38,0,0,0-.24.41A1.27,1.27,0,0,0,675.93,293.48Z"/><path d="M686.49,294.19v.36c0,.1,0,.19,0,.28h-4.13a1.84,1.84,0,0,0,.5,1.38,2,2,0,0,0,1.46.49l.51,0,.5-.06.46-.08.41-.1v.84a7.08,7.08,0,0,1-.94.19,7.77,7.77,0,0,1-1.09.08,3.58,3.58,0,0,1-1.3-.21,2.28,2.28,0,0,1-.9-.59,2.46,2.46,0,0,1-.51-1,4.56,4.56,0,0,1-.17-1.28,3.77,3.77,0,0,1,.18-1.17,3,3,0,0,1,.52-1,2.47,2.47,0,0,1,.84-.66,2.44,2.44,0,0,1,1.13-.25,2.83,2.83,0,0,1,1.09.2,2.06,2.06,0,0,1,.8.54,2.53,2.53,0,0,1,.5.86A3.7,3.7,0,0,1,686.49,294.19Zm-1.06-.15a2.38,2.38,0,0,0-.07-.72,1.75,1.75,0,0,0-.29-.56,1.6,1.6,0,0,0-.49-.36,1.65,1.65,0,0,0-.68-.13,1.33,1.33,0,0,0-.61.13,1.29,1.29,0,0,0-.48.36,1.91,1.91,0,0,0-.32.56,2.71,2.71,0,0,0-.15.72Z"/><path d="M688.12,291.56H689l0,.95a4.05,4.05,0,0,1,.5-.51,3,3,0,0,1,.47-.32,1.69,1.69,0,0,1,.47-.18,2.73,2.73,0,0,1,.5-.05,1.7,1.7,0,0,1,1.37.54,2.4,2.4,0,0,1,.47,1.61v3.84h-1v-3.76a1.66,1.66,0,0,0-.26-1,.92.92,0,0,0-.77-.33,1.13,1.13,0,0,0-.36.06,1.19,1.19,0,0,0-.37.19,3.27,3.27,0,0,0-.42.37c-.15.16-.32.35-.51.59v3.9h-1Z"/><path d="M699.46,297.36a4.16,4.16,0,0,1-.72.12,6.06,6.06,0,0,1-.75,0,2.36,2.36,0,0,1-1.65-.5,2,2,0,0,1-.54-1.54v-3.07h-1.65v-.85h1.65v-1.62l1-.26v1.88h2.64v.85h-2.64v3a1.26,1.26,0,0,0,.33,1,1.43,1.43,0,0,0,1,.31,4.55,4.55,0,0,0,.61,0,6.66,6.66,0,0,0,.7-.14Z"/><rect class="cls-5" x="625.49" y="241.87" width="26" height="26" rx="13"/><rect class="cls-5" x="648.49" y="247.89" width="7.95" height="14.31" rx="3.98"/><rect class="cls-5" x="635.83" y="231.05" width="4.42" height="14.31" rx="2.21" transform="translate(399.83 876.25) rotate(-90)"/><rect class="cls-1" x="630.01" y="249.51" width="17.43" height="6.34" rx="2.86"/><rect class="cls-5" x="620.57" y="247.89" width="7.95" height="14.31" rx="3.98"/><rect class="cls-5" x="636.84" y="236.69" width="2.84" height="10.13"/><path class="cls-6" d="M643.45,262.13h0c0,.9-.41,1.63-.91,1.63h-9c-.51,0-.92-.73-.92-1.63h0c0-.9.41-1.63.92-1.63h9C643,260.5,643.45,261.23,643.45,262.13Z"/><rect class="cls-5" x="300.49" y="7.87" width="26" height="26" rx="13"/><rect class="cls-5" x="323.49" y="13.89" width="7.95" height="14.31" rx="3.98"/><rect class="cls-5" x="310.83" y="-2.95" width="4.42" height="14.31" rx="2.21" transform="translate(308.83 317.25) rotate(-90)"/><rect class="cls-1" x="305.01" y="15.51" width="17.43" height="6.34" rx="2.86"/><rect class="cls-5" x="295.57" y="13.89" width="7.95" height="14.31" rx="3.98"/><rect class="cls-5" x="311.84" y="2.69" width="2.84" height="10.13"/><path class="cls-6" d="M318.45,28.13h0c0,.9-.41,1.63-.91,1.63h-9c-.51,0-.92-.73-.92-1.63h0c0-.9.41-1.63.92-1.63h9C318,26.5,318.45,27.23,318.45,28.13Z"/><rect class="cls-5" x="492.49" y="5.87" width="26" height="26" rx="13"/><rect class="cls-5" x="515.49" y="11.89" width="7.95" height="14.31" rx="3.98"/><rect class="cls-5" x="502.83" y="-4.95" width="4.42" height="14.31" rx="2.21" transform="translate(502.83 507.25) rotate(-90)"/><rect class="cls-1" x="497.01" y="13.51" width="17.43" height="6.34" rx="2.86"/><rect class="cls-5" x="487.57" y="11.89" width="7.95" height="14.31" rx="3.98"/><rect class="cls-5" x="503.84" y="0.69" width="2.84" height="10.13"/><path class="cls-6" d="M510.45,26.13h0c0,.9-.41,1.63-.91,1.63h-9c-.51,0-.92-.73-.92-1.63h0c0-.9.41-1.63.92-1.63h9C510,24.5,510.45,25.23,510.45,26.13Z"/><rect class="cls-1" x="466.93" y="260.93" width="126" height="46"/><text class="cls-2" transform="translate(472 288.21)">Warehouse <tspan x="0" y="14.4">Operations</tspan></text><rect class="cls-1" x="535.93" y="352.93" width="126" height="46"/><text class="cls-2" transform="translate(541 380.21)">Supply<tspan x="0" y="14.4">Planners</tspan></text><rect class="cls-1" x="719.93" y="352.93" width="126" height="46"/><text class="cls-2" transform="translate(725 380.21)">Planing Decisions</text><rect class="cls-1" x="752.93" y="143.93" width="126" height="46"/><text class="cls-2" transform="translate(758 181.21)">ERP</text><rect class="cls-1" x="314.93" y="260.93" width="126" height="46"/><text class="cls-2" transform="translate(320 288.21)">Production<tspan x="0" y="14.4">Operations</tspan></text><rect class="cls-5" x="706.49" y="339.87" width="26" height="26" rx="13"/><rect class="cls-5" x="729.49" y="345.89" width="7.95" height="14.31" rx="3.98"/><rect class="cls-5" x="716.83" y="329.05" width="4.42" height="14.31" rx="2.21" transform="translate(382.83 1055.25) rotate(-90)"/><rect class="cls-1" x="711.01" y="347.51" width="17.43" height="6.34" rx="2.86"/><rect class="cls-5" x="701.57" y="345.89" width="7.95" height="14.31" rx="3.98"/><rect class="cls-5" x="717.84" y="334.69" width="2.84" height="10.13"/><path class="cls-6" d="M724.45,360.13h0c0,.9-.41,1.63-.91,1.63h-9c-.51,0-.92-.73-.92-1.63h0c0-.9.41-1.63.92-1.63h9C724,358.5,724.45,359.23,724.45,360.13Z"/><rect class="cls-5" x="528.49" y="339.87" width="26" height="26" rx="13"/><rect class="cls-5" x="551.49" y="345.89" width="7.95" height="14.31" rx="3.98"/><rect class="cls-5" x="538.83" y="329.05" width="4.42" height="14.31" rx="2.21" transform="translate(204.83 877.25) rotate(-90)"/><rect class="cls-1" x="533.01" y="347.51" width="17.43" height="6.34" rx="2.86"/><rect class="cls-5" x="523.57" y="345.89" width="7.95" height="14.31" rx="3.98"/><rect class="cls-5" x="539.84" y="334.69" width="2.84" height="10.13"/><path class="cls-6" d="M546.45,360.13h0c0,.9-.41,1.63-.91,1.63h-9c-.51,0-.92-.73-.92-1.63h0c0-.9.41-1.63.92-1.63h9C546,358.5,546.45,359.23,546.45,360.13Z"/><line class="cls-7" x1="280.43" y1="110.43" x2="305.43" y2="44.43"/><line class="cls-7" x1="434.43" y1="44.43" x2="500.43" y2="44.43"/><line class="cls-7" x1="367.43" y1="68.43" x2="427.43" y2="135.43"/><line class="cls-7" x1="514.43" y1="68.43" x2="488.43" y2="129.43"/><line class="cls-7" x1="520.43" y1="165.43" x2="698.43" y2="258.43"/><line class="cls-7" x1="280.43" y1="196.43" x2="370.43" y2="68.43"/><line class="cls-7" x1="373.43" y1="258.43" x2="280.43" y2="105.43"/><line class="cls-7" x1="441.43" y1="286.43" x2="465.43" y2="286.43"/><line class="cls-7" x1="592.43" y1="286.43" x2="636.43" y2="281.43"/><line class="cls-7" x1="362.43" y1="307.43" x2="536.43" y2="382.43"/><line class="cls-7" x1="555.43" y1="307.43" x2="603.43" y2="352.43"/><line class="cls-7" x1="664.43" y1="375.43" x2="720.43" y2="375.43"/><line class="cls-7" x1="691.43" y1="305.43" x2="775.43" y2="347.43"/><line class="cls-7" x1="777.43" y1="352.43" x2="816.43" y2="189.43"/><line class="cls-8" x1="224.93" y1="218.93" x2="354.93" y2="285.93"/><line class="cls-7" x1="719.43" y1="165.43" x2="753.43" y2="166.43"/><line class="cls-7" x1="762.43" y1="286.43" x2="789.43" y2="191.43"/><line class="cls-8" x1="624.93" y1="44.93" x2="661.93" y2="144.93"/><line class="cls-8" x1="809.93" y1="143.93" x2="624.93" y2="44.93"/></g></g></svg>