<svg xmlns="http://www.w3.org/2000/svg" viewBox="0 0 846.47 428.74"><defs><style>.cls-1{fill:#8bdfff;}.cls-2{font-size:12px;}.cls-2,.cls-3{font-family:Consolas;}.cls-3{font-size:20px;}.cls-3,.cls-5{fill:#fff;}.cls-4{fill:#282c34;}.cls-6{fill:#ffeea2;}.cls-7,.cls-8{fill:none;}.cls-7{stroke:#fff;stroke-miterlimit:10;}</style></defs><g id="Layer_2" data-name="Layer 2"><g id="Layer_1-2" data-name="Layer 1"><rect class="cls-1" x="562.93" y="163.07" width="126" height="46"/><text class="cls-2" transform="translate(568 193.18)">Relationship <tspan x="0" y="14.4">Mapping</tspan></text><rect class="cls-1" x="232.93" y="28.07" width="126" height="46"/><text class="cls-2"><tspan x="238" y="68.58">ERP</tspan></text><rect class="cls-1" x="232.93" y="89.07" width="126" height="46"/><text class="cls-2"><tspan x="238" y="129.58">CRM</tspan></text><rect class="cls-1" x="232.93" y="154.07" width="126" height="46"/><text class="cls-2"><tspan x="238" y="194.58">HRM</tspan></text><text class="cls-3" transform="translate(0 63.7)">Cross-System <tspan x="0" y="24">Data </tspan><tspan x="0" y="48">Reconciliation</tspan></text><rect class="cls-1" x="456.93" y="290.07" width="126" height="46"/><text class="cls-2" transform="translate(462 317.35)">Monitoring <tspan x="0" y="14.4">Agent</tspan></text><rect class="cls-1" x="456.6" y="372.61" width="126" height="46"/><text class="cls-2" transform="translate(461.67 399.89)">Control <tspan x="0" y="14.4">Plane</tspan></text><rect class="cls-4" x="443.49" y="277.01" width="26" height="26" rx="13"/><rect class="cls-4" x="466.49" y="283.02" width="7.95" height="14.31" rx="3.98"/><rect class="cls-4" x="453.83" y="266.19" width="4.42" height="14.31" rx="2.21" transform="translate(182.69 729.39) rotate(-90)"/><rect class="cls-1" x="448.01" y="284.65" width="17.43" height="6.34" rx="2.86"/><rect class="cls-4" x="438.57" y="283.02" width="7.95" height="14.31" rx="3.98"/><rect class="cls-4" x="454.84" y="271.83" width="2.84" height="10.13"/><path class="cls-5" d="M461.45,297.27h0c0,.9-.41,1.63-.91,1.63h-9c-.51,0-.92-.73-.92-1.63h0c0-.9.41-1.64.92-1.64h9C461,295.63,461.45,296.37,461.45,297.27Z"/><rect class="cls-6" x="100.9" y="243.49" width="94.09" height="94.09" transform="translate(-162.1 189.71) rotate(-45)"/><text class="cls-2" transform="translate(97.98 300.35)">Data Collecting <tspan x="32.99" y="14.4">Agent</tspan></text><rect class="cls-4" x="132.49" y="260.01" width="26" height="26" rx="13"/><rect class="cls-4" x="155.49" y="266.02" width="7.95" height="14.31" rx="3.98"/><rect class="cls-4" x="142.83" y="249.19" width="4.42" height="14.31" rx="2.21" transform="translate(-111.31 401.39) rotate(-90)"/><rect class="cls-1" x="137.01" y="267.65" width="17.43" height="6.34" rx="2.86"/><rect class="cls-4" x="127.57" y="266.02" width="7.95" height="14.31" rx="3.98"/><rect class="cls-4" x="143.84" y="254.83" width="2.84" height="10.13"/><path class="cls-5" d="M150.45,280.27h0c0,.9-.41,1.63-.91,1.63h-9c-.51,0-.92-.73-.92-1.63h0c0-.9.41-1.64.92-1.64h9C150,278.63,150.45,279.37,150.45,280.27Z"/><rect class="cls-6" x="411.9" y="46.49" width="94.09" height="94.09" transform="translate(68.29 351.92) rotate(-45)"/><text class="cls-2" transform="translate(408.98 103.35)">Data Validation <tspan x="32.99" y="14.4">Agent</tspan></text><rect class="cls-4" x="443.49" y="63.01" width="26" height="26" rx="13"/><rect class="cls-4" x="466.49" y="69.02" width="7.95" height="14.31" rx="3.98"/><rect class="cls-4" x="453.83" y="52.19" width="4.42" height="14.31" rx="2.21" transform="translate(396.69 515.39) rotate(-90)"/><rect class="cls-1" x="448.01" y="70.65" width="17.43" height="6.34" rx="2.86"/><rect class="cls-4" x="438.57" y="69.02" width="7.95" height="14.31" rx="3.98"/><rect class="cls-4" x="454.84" y="57.83" width="2.84" height="10.13"/><path class="cls-5" d="M461.45,83.27h0c0,.9-.41,1.63-.91,1.63h-9c-.51,0-.92-.73-.92-1.63h0c0-.9.41-1.64.92-1.64h9C461,81.63,461.45,82.37,461.45,83.27Z"/><rect class="cls-6" x="584.9" y="19.49" width="94.09" height="94.09" transform="translate(138.05 466.34) rotate(-45)"/><rect class="cls-4" x="616.49" y="36.01" width="26" height="26" rx="13"/><rect class="cls-4" x="639.49" y="42.02" width="7.95" height="14.31" rx="3.98"/><rect class="cls-4" x="626.83" y="25.19" width="4.42" height="14.31" rx="2.21" transform="translate(596.69 661.39) rotate(-90)"/><rect class="cls-1" x="621.01" y="43.65" width="17.43" height="6.34" rx="2.86"/><rect class="cls-4" x="611.57" y="42.02" width="7.95" height="14.31" rx="3.98"/><rect class="cls-4" x="627.84" y="30.83" width="2.84" height="10.13"/><path class="cls-5" d="M634.45,56.27h0c0,.9-.41,1.63-.91,1.63h-9c-.51,0-.92-.73-.92-1.63h0c0-.9.41-1.64.92-1.64h9C634,54.63,634.45,55.37,634.45,56.27Z"/><rect class="cls-6" x="732.9" y="53.49" width="94.09" height="94.09" transform="translate(157.36 580.95) rotate(-45)"/><text class="cls-2" transform="translate(736.58 110.35)">Harmonization <tspan x="26.39" y="14.4">Agent</tspan></text><rect class="cls-4" x="764.49" y="70.01" width="26" height="26" rx="13"/><rect class="cls-4" x="787.49" y="76.02" width="7.95" height="14.31" rx="3.98"/><rect class="cls-4" x="774.83" y="59.19" width="4.42" height="14.31" rx="2.21" transform="translate(710.69 843.39) rotate(-90)"/><rect class="cls-1" x="769.01" y="77.65" width="17.43" height="6.34" rx="2.86"/><rect class="cls-4" x="759.57" y="76.02" width="7.95" height="14.31" rx="3.98"/><rect class="cls-4" x="775.84" y="64.83" width="2.84" height="10.13"/><path class="cls-5" d="M782.45,90.27h0c0,.9-.41,1.63-.91,1.63h-9c-.51,0-.92-.73-.92-1.63h0c0-.9.41-1.64.92-1.64h9C782,88.63,782.45,89.37,782.45,90.27Z"/><rect class="cls-6" x="732.9" y="208.49" width="94.09" height="94.09" transform="translate(47.75 626.35) rotate(-45)"/><text class="cls-2" transform="translate(729.98 265.35)">Reporting Agent</text><rect class="cls-4" x="764.49" y="225.01" width="26" height="26" rx="13"/><rect class="cls-4" x="787.49" y="231.02" width="7.95" height="14.31" rx="3.98"/><rect class="cls-4" x="774.83" y="214.19" width="4.42" height="14.31" rx="2.21" transform="translate(555.69 998.39) rotate(-90)"/><rect class="cls-1" x="769.01" y="232.65" width="17.43" height="6.34" rx="2.86"/><rect class="cls-4" x="759.57" y="231.02" width="7.95" height="14.31" rx="3.98"/><rect class="cls-4" x="775.84" y="219.83" width="2.84" height="10.13"/><path class="cls-5" d="M782.45,245.27h0c0,.9-.41,1.63-.91,1.63h-9c-.51,0-.92-.73-.92-1.63h0c0-.9.41-1.64.92-1.64h9C782,243.63,782.45,244.37,782.45,245.27Z"/><line class="cls-7" x1="189.1" y1="265.11" x2="233.1" y2="36.11"/><line class="cls-7" x1="233.43" y1="169.57" x2="189.1" y2="265.11"/><line class="cls-7" x1="233.43" y1="98.57" x2="189.1" y2="265.11"/><line class="cls-7" x1="359.43" y1="45.57" x2="426.43" y2="59.57"/><line class="cls-7" x1="359.43" y1="183.57" x2="425.43" y2="126.57"/><line class="cls-7" x1="359.43" y1="111.57" x2="406.43" y2="107.57"/><line class="cls-7" x1="491.43" y1="127.57" x2="588.1" y2="90.11"/><line class="cls-7" x1="663.1" y1="102.11" x2="751.1" y2="138.11"/><line class="cls-7" x1="615.1" y1="113.11" x2="611.43" y2="162.57"/><line class="cls-7" x1="628.43" y1="222.57" x2="519.43" y2="288.57"/><line class="cls-7" x1="458.1" y1="317.11" x2="187.43" y2="317.57"/><text class="cls-2" transform="translate(576.39 73.35)">Data Manipulation <tspan x="39.59" y="14.4">Agent</tspan></text><line class="cls-7" x1="780.43" y1="166.57" x2="780.43" y2="188.57"/><line class="cls-7" x1="688.43" y1="184.57" x2="759.43" y2="209.57"/><line class="cls-7" x1="583.1" y1="309.11" x2="747.1" y2="289.11"/><line class="cls-8" x1="522.6" y1="335.61" x2="519.6" y2="372.61"/></g></g></svg>