<svg xmlns="http://www.w3.org/2000/svg" viewBox="0 0 806.93 303.92"><defs><style>.cls-1{fill:#ffeea2;}.cls-2{font-size:12px;}.cls-2,.cls-4{font-family:Consolas;}.cls-3{fill:#8bdfff;}.cls-4{font-size:20px;}.cls-4,.cls-6{fill:#fff;}.cls-5{fill:#282c34;}.cls-7{fill:none;stroke:#fff;stroke-miterlimit:10;}</style></defs><g id="Layer_2" data-name="Layer 2"><g id="Layer_1-2" data-name="Layer 1"><rect class="cls-1" x="207.15" y="97.59" width="85.6" height="85.6" transform="translate(-26.06 217.86) rotate(-45)"/><text class="cls-2" transform="translate(200.28 140.04)">Commnunication <tspan x="19.79" y="14.4">Channels</tspan></text><rect class="cls-3" x="549.93" y="19.93" width="126" height="46"/><text class="cls-2" transform="translate(555 46.04)">CRM <tspan x="0" y="14.4">Integration</tspan></text><rect class="cls-3" x="680.93" y="84.93" width="126" height="46"/><text class="cls-2" transform="translate(686 111.04)">Customer <tspan x="0" y="14.4">profile</tspan></text><rect class="cls-3" x="392.93" y="250.93" width="126" height="46"/><text class="cls-2" transform="translate(398 277.04)">Personalized <tspan x="0" y="14.4">Offer</tspan></text><text class="cls-4" transform="translate(0 43.56)">Hyper-Personalized <tspan x="0" y="24">Customer </tspan><tspan x="0" y="48">Journey</tspan></text><rect class="cls-1" x="640.78" y="185.23" width="98.33" height="98.33" transform="translate(36.34 556.52) rotate(-45)"/><rect class="cls-3" x="380.93" y="18.93" width="126" height="46"/><text class="cls-2" transform="translate(386 46.21)">Lead Generation <tspan x="0" y="14.4">Agent</tspan></text><rect class="cls-5" x="367.49" y="5.87" width="26" height="26" rx="13"/><rect class="cls-5" x="390.49" y="11.89" width="7.95" height="14.31" rx="3.98"/><rect class="cls-5" x="377.83" y="-4.95" width="4.42" height="14.31" rx="2.21" transform="translate(377.83 382.25) rotate(-90)"/><rect class="cls-3" x="372.01" y="13.51" width="17.43" height="6.34" rx="2.86"/><rect class="cls-5" x="362.57" y="11.89" width="7.95" height="14.31" rx="3.98"/><rect class="cls-5" x="378.84" y="0.69" width="2.84" height="10.13"/><path class="cls-6" d="M385.45,26.13h0c0,.9-.41,1.63-.91,1.63h-9c-.51,0-.92-.73-.92-1.63h0c0-.9.41-1.63.92-1.63h9C385,24.5,385.45,25.23,385.45,26.13Z"/><rect class="cls-3" x="461.93" y="120.93" width="126" height="46"/><text class="cls-2" transform="translate(467 148.21)">Lead Qualification <tspan x="0" y="14.4">Agent</tspan></text><rect class="cls-5" x="448.49" y="107.87" width="26" height="26" rx="13"/><rect class="cls-5" x="471.49" y="113.89" width="7.95" height="14.31" rx="3.98"/><rect class="cls-5" x="458.83" y="97.05" width="4.42" height="14.31" rx="2.21" transform="translate(356.83 565.25) rotate(-90)"/><rect class="cls-3" x="453.01" y="115.51" width="17.43" height="6.34" rx="2.86"/><rect class="cls-5" x="443.57" y="113.89" width="7.95" height="14.31" rx="3.98"/><rect class="cls-5" x="459.84" y="102.69" width="2.84" height="10.13"/><path class="cls-6" d="M466.45,128.13h0c0,.9-.41,1.63-.91,1.63h-9c-.51,0-.92-.73-.92-1.63h0c0-.9.41-1.63.92-1.63h9C466,126.5,466.45,127.23,466.45,128.13Z"/><text class="cls-2" transform="translate(639.98 245.21)">Personalization <tspan x="32.99" y="14.4">Agent</tspan></text><rect class="cls-5" x="674.49" y="203.87" width="26" height="26" rx="13"/><rect class="cls-5" x="697.49" y="209.89" width="7.95" height="14.31" rx="3.98"/><rect class="cls-5" x="684.83" y="193.05" width="4.42" height="14.31" rx="2.21" transform="translate(486.83 887.25) rotate(-90)"/><rect class="cls-3" x="679.01" y="211.51" width="17.43" height="6.34" rx="2.86"/><rect class="cls-5" x="669.57" y="209.89" width="7.95" height="14.31" rx="3.98"/><rect class="cls-5" x="685.84" y="198.69" width="2.84" height="10.13"/><path class="cls-6" d="M692.45,224.13h0c0,.9-.41,1.63-.91,1.63h-9c-.51,0-.92-.73-.92-1.63h0c0-.9.41-1.63.92-1.63h9C692,222.5,692.45,223.23,692.45,224.13Z"/><line class="cls-7" x1="280.43" y1="107.43" x2="381.43" y2="43.43"/><line class="cls-7" x1="507.43" y1="42.43" x2="549.43" y2="43.43"/><line class="cls-7" x1="675.43" y1="42.43" x2="742.43" y2="85.43"/><line class="cls-7" x1="601.43" y1="66.43" x2="518.43" y2="121.43"/><line class="cls-7" x1="749.43" y1="129.43" x2="725.43" y2="198.43"/><line class="cls-7" x1="587.43" y1="145.43" x2="655.43" y2="194.43"/><line class="cls-7" x1="648.43" y1="262.43" x2="518.43" y2="273.43"/><line class="cls-7" x1="393.43" y1="274.43" x2="283.43" y2="167.43"/></g></g></svg>